<svg width="1521" height="829" viewBox="0 0 1521 829" fill="none" xmlns="http://www.w3.org/2000/svg">
<path fill-rule="evenodd" clip-rule="evenodd" d="M396.8 328.2C398.457 328.2 399.8 329.543 399.8 331.2C399.8 332.798 398.551 334.104 396.976 334.195L396.8 334.2H287.9C213.508 334.2 153.021 393.944 151.818 468.05L151.8 470.3V825.5C151.8 827.157 150.457 828.5 148.8 828.5C147.202 828.5 145.896 827.251 145.805 825.676L145.8 825.5V470.3C145.8 392.628 208.177 329.475 285.551 328.219L287.9 328.2H396.8Z" fill="#C770F0"/>
<path fill-rule="evenodd" clip-rule="evenodd" d="M552.432 511.907C554.527 511.206 556.793 512.337 557.494 514.432L558.096 516.265L559.048 519.219C559.25 519.851 559.458 520.507 559.672 521.186C561.3 526.356 562.929 531.763 564.45 537.148C565.137 539.581 565.788 541.959 566.396 544.266L566.756 545.642C569.145 554.856 570.726 562.492 571.281 568.107C571.498 570.305 569.892 572.264 567.693 572.481C565.495 572.698 563.537 571.092 563.319 568.894C562.829 563.927 561.388 556.899 559.201 548.383L559.012 547.649C558.318 544.973 557.561 542.19 556.751 539.323C555.441 534.684 554.047 530.021 552.643 525.512L552.041 523.59C551.69 522.475 551.354 521.421 551.038 520.437L549.906 516.968C549.206 514.873 550.337 512.607 552.432 511.907Z" fill="#C770F0"/>
<path fill-rule="evenodd" clip-rule="evenodd" d="M700.036 498.807C702.174 498.933 703.821 500.717 703.8 502.836L703.703 504.794C703.642 506.086 703.581 507.562 703.523 509.208L703.501 509.834C702.877 528.284 703.129 549.12 704.885 569.558C705.075 571.759 703.444 573.696 701.243 573.886C699.042 574.075 697.104 572.444 696.915 570.243C695.181 550.074 694.888 529.587 695.45 511.274L695.55 508.304C695.587 507.282 695.626 506.327 695.665 505.443L695.807 502.565C695.933 500.426 697.717 498.78 699.836 498.8L700.036 498.807Z" fill="#C770F0"/>
<path fill-rule="evenodd" clip-rule="evenodd" d="M809.504 387.754C810.689 386.597 812.588 386.619 813.746 387.804C814.415 388.489 814.86 389.365 815.285 390.57L815.435 391.013C815.734 391.933 816.033 393.064 816.382 394.555L816.81 396.458C817.2 398.249 817.991 401.948 818.173 402.783C819.679 409.666 821.055 414.945 822.843 420.156C829.412 439.302 839.305 449.847 854.652 449.601C856.308 449.574 857.673 450.896 857.7 452.552C857.726 454.209 856.405 455.573 854.748 455.6C836.184 455.898 824.483 443.426 817.168 422.103C815.369 416.86 813.982 411.61 812.505 404.942L810.798 397.053L810.552 395.977C810.187 394.41 809.893 393.323 809.625 392.563C809.543 392.33 809.468 392.142 809.404 392.002L809.358 391.906C809.341 391.872 809.358 391.898 809.454 391.997C808.296 390.811 808.318 388.912 809.504 387.754Z" fill="#C770F0"/>
<path fill-rule="evenodd" clip-rule="evenodd" d="M407.4 408.1C391 415.3 367.4 429.4 348.4 458.5C375.2 447.5 467.3 529.9 532.6 511.2C502.3 508 437.2 460.2 407.4 408.1Z" fill="#C770F0"/>
<path fill-rule="evenodd" clip-rule="evenodd" d="M459.312 273.891C460.808 273.18 462.598 273.816 463.309 275.312C464.021 276.809 463.384 278.598 461.888 279.31C425.084 296.807 403.961 318.271 396.959 342.726C390.829 364.135 395.622 387.705 409.791 411.988C410.856 413.814 409.751 416.139 407.662 416.464C399.295 417.77 387.106 424.928 370.697 440.068L369.382 441.289C347.81 461.479 321.129 493.422 288.848 539.035C235.766 613.95 212.921 683.618 225.894 734.497C239.885 789.363 294.682 820.757 389.952 822.401C391.608 822.429 392.928 823.795 392.9 825.452C392.871 827.109 391.505 828.428 389.848 828.4C292.149 826.714 234.846 793.884 220.081 735.979C206.583 683.046 229.953 611.775 283.951 535.567L285.934 532.773C317.877 487.872 344.377 456.333 365.962 436.275L366.628 435.658C381.306 422.116 393.04 414.502 402.221 411.614L402.616 411.491L402.443 411.178C389.336 387.169 384.982 363.583 390.995 341.77L391.191 341.075C398.718 314.785 421.07 292.071 459.312 273.891Z" fill="#C770F0"/>
<path fill-rule="evenodd" clip-rule="evenodd" d="M887.661 168.71C889.103 167.49 891.283 167.894 892.204 169.509L892.308 169.708L892.901 170.889C893.375 171.825 893.95 172.946 894.631 174.259L895.939 176.766C897.992 180.681 900.479 185.334 903.422 190.743C903.875 191.558 904.309 191.794 906.215 192.159L906.461 192.205C910.441 192.945 912.249 193.525 914.907 195.451C918.419 197.996 921.562 202.239 924.53 208.756L924.607 208.942L924.672 209.132L987.372 416.632L987.418 416.802L987.988 419.202C995.121 449.404 998.825 472.146 999.282 493.007L999.298 493.829C999.773 520.488 994.566 542.349 982.432 559.941C954.533 600.388 890.658 616.813 780.566 606.798L779.064 606.658L778.966 606.718C778.581 606.934 778.143 607.068 777.676 607.095L777.5 607.1C775.902 607.1 774.596 605.851 774.505 604.276L774.5 604.1V603.5C774.5 601.731 776.023 600.346 777.784 600.513C887.992 610.985 950.858 595.149 977.493 556.534C988.834 540.092 993.753 519.438 993.299 493.936C992.937 473.632 989.377 451.376 982.422 421.741L981.602 418.281L918.989 211.069L918.836 210.736C916.424 205.561 914.04 202.328 911.621 200.484L911.387 200.31C909.787 199.151 908.7 198.752 906.059 198.236L905.365 198.105C901.651 197.415 899.749 196.485 898.165 193.634L895.839 189.341C893.615 185.22 891.698 181.61 890.07 178.492L888.86 176.163L888.579 175.618L888.394 175.754C879.533 182.181 868.246 186.317 855.089 188.512L854.281 188.644C839.759 190.966 824.323 190.814 809.725 189.168C808.422 189.022 807.189 188.869 806.031 188.713L804.373 188.481L804.287 190.084C804.21 191.595 804.133 193.312 804.058 195.243L803.904 199.587L803.773 204.013C803.748 204.94 803.723 205.893 803.699 206.873C803.535 213.618 801.34 217.39 795.864 222.647L794.371 224.053C788.268 229.776 786.319 233.52 787.045 241.868L787.074 242.184L814.549 389.349C814.931 391.397 813.167 393.181 811.143 392.865L810.974 392.834L734.574 376.534C733.386 376.28 732.468 375.336 732.249 374.141C729.36 358.398 724.735 342.58 718.187 327.95C710.04 309.749 699.371 294.415 685.944 282.875C684.688 281.795 684.545 279.901 685.625 278.644C686.705 277.388 688.599 277.245 689.855 278.325C704.009 290.49 715.178 306.543 723.663 325.499C730.025 339.712 734.613 354.961 737.608 370.201L737.777 371.083L807.824 386.027L781.139 243.085L781.114 242.887C780.542 236.948 781.324 232.194 783.362 228.165C784.866 225.193 786.606 223.14 789.882 220.038L791.06 218.934C795.879 214.419 797.505 211.887 797.69 207.059L797.801 202.924C797.826 202.007 797.853 201.116 797.88 200.251L798.013 196.323C798.134 193.012 798.261 190.268 798.388 188.046L798.511 186.065L798.613 184.723C798.77 183.024 800.306 181.811 801.975 182.023L803.276 182.243C803.592 182.294 803.936 182.348 804.308 182.405C806.091 182.678 808.132 182.951 810.397 183.206C824.501 184.796 839.426 184.943 853.334 182.719C867.465 180.46 879.169 175.902 887.661 168.71Z" fill="#C770F0"/>
<path fill-rule="evenodd" clip-rule="evenodd" d="M787.354 736.3C788.952 736.276 790.277 737.505 790.392 739.078L790.4 739.254L791.7 824.754C791.725 826.411 790.402 827.774 788.746 827.799C787.148 827.824 785.823 826.595 785.708 825.022L785.7 824.845L784.4 739.345C784.375 737.689 785.698 736.325 787.354 736.3Z" fill="#C770F0"/>
<path fill-rule="evenodd" clip-rule="evenodd" d="M770.8 381.2C758.7 376.2 742.7 374.3 732.1 372.6C734.4 385 735 395.8 734.7 403.1C732.4 455.8 711.8 476.3 706.9 495.7C770.3 472.4 775.2 410.6 770.8 381.2Z" fill="#C770F0"/>
<path fill-rule="evenodd" clip-rule="evenodd" d="M675.9 689.1C674.6 700.2 672 704.9 646 718.3C639.3 721.7 625.3 729.1 606.6 738.5C610.5 786.6 612.7 822 612.7 822L690.8 823.1C690.8 823.1 688.6 742.7 687 661C682.4 669.9 676.7 682.4 675.9 689.1Z" fill="#FE7624"/>
<path fill-rule="evenodd" clip-rule="evenodd" d="M685 503.2C686 460.1 669.5 417.8 653.5 389.6C650.9 428.9 642.6 474.5 633.6 489.4C591.6 460.3 560.1 443.6 534.9 430.3C519 404.7 505.6 381.8 499.8 365.2C499.9 362.7 500 360.1 500 357.6C499 357.7 498.1 357.8 497.3 357.9C504.3 381 519.4 413.8 550.7 457.8C556.7 464.8 562.6 472.7 568.2 481.4C575.7 493.1 582.5 526.2 588.4 567.4C623.2 562.6 650.1 561.6 655 569L685.2 574.8C684.1 517.2 684.5 526.8 685 503.2Z" fill="#FE7624"/>
<path fill-rule="evenodd" clip-rule="evenodd" d="M724.598 646.161C726.221 645.829 727.807 646.875 728.139 648.498C728.46 650.064 727.498 651.594 725.973 651.999L725.802 652.039L679.402 661.539C677.779 661.872 676.193 660.825 675.861 659.202C675.541 657.637 676.502 656.107 678.027 655.702L678.198 655.661L724.598 646.161Z" fill="#C770F0"/>
<path fill-rule="evenodd" clip-rule="evenodd" d="M689.408 570.666C718.288 561.094 742.913 567.016 762.903 584.545C777.028 596.931 787.751 614.422 793.03 629.406L793.363 630.368C798.279 644.799 804.605 672.789 805.368 682.845L806.014 691.51C806.186 693.848 806.338 695.975 806.484 698.133L806.667 700.878C807.078 707.213 807.392 713.086 807.599 718.684L807.662 720.483C808.017 731.175 807.93 740.027 807.295 746.727L807.205 747.639C806.239 756.926 804.293 761.988 799.584 762.295C794.53 762.606 790.693 756.386 786.122 744.394C783.101 736.47 780.07 726.453 777.497 716.555C777.08 714.952 778.042 713.314 779.645 712.897C781.249 712.48 782.887 713.442 783.303 715.045C785.826 724.749 788.799 734.574 791.728 742.257L792.174 743.409C793.8 747.559 795.357 750.882 796.791 753.207C797.51 754.372 798.176 755.247 798.747 755.803L798.944 755.984L799.092 756.108L799.165 755.993C799.332 755.718 799.509 755.345 799.686 754.88L799.774 754.64C800.446 752.753 800.97 749.882 801.322 746.161C801.961 739.407 802.02 730.166 801.603 718.906L801.509 716.515C801.308 711.696 801.029 706.65 800.679 701.263L800.498 698.54C800.389 696.93 800.277 695.337 800.155 693.659L799.357 682.95C798.498 672.926 792.107 644.879 787.371 631.397C782.41 617.318 772.218 600.693 758.947 589.056C740.313 572.715 717.614 567.376 690.469 576.64L690.341 576.68L690.211 576.715L644.711 587.815C643.101 588.208 641.478 587.221 641.085 585.611C640.707 584.059 641.611 582.494 643.119 582.033L643.289 581.986L688.664 570.915L689.408 570.666Z" fill="#C770F0"/>
<path fill-rule="evenodd" clip-rule="evenodd" d="M724.714 637.007C724.876 635.358 726.344 634.153 727.993 634.314C729.642 634.476 730.847 635.944 730.686 637.593L730.626 638.161C730.541 638.937 730.43 639.788 730.286 640.781L729.927 643.128C729.7 644.56 729.277 647.195 729.159 647.95L728.935 649.404C728.04 655.339 727.592 659.801 727.557 664.256C727.5 671.336 728.608 677.166 731.129 681.756C731.927 683.208 731.397 685.032 729.944 685.829C728.492 686.627 726.668 686.097 725.871 684.644C722.785 679.028 721.493 672.227 721.557 664.208C721.597 659.229 722.105 654.341 723.112 647.787L724.115 641.465L724.344 639.948C724.514 638.78 724.633 637.838 724.714 637.007Z" fill="#C770F0"/>
<path fill-rule="evenodd" clip-rule="evenodd" d="M789.049 679.32C790.636 679.507 791.788 680.899 791.695 682.474L791.671 682.719L791.612 683.19C791.558 683.616 791.491 684.109 791.413 684.662L791.236 685.876C791.05 687.121 790.834 688.461 790.589 689.875C789.652 695.269 788.47 700.666 787.02 705.724L786.699 706.824C782.762 720.084 777.693 728.573 770.468 730.225C762.481 732.05 756.919 729.779 753.949 724.815C753.184 723.537 752.664 722.189 752.335 720.843C752.133 720.02 752.037 719.351 752.007 718.903C751.895 717.25 753.144 715.819 754.797 715.707C756.391 715.599 757.779 716.757 757.976 718.322L757.993 718.497C758.002 718.621 758.049 718.953 758.163 719.417C758.358 720.215 758.666 721.012 759.098 721.735C760.714 724.435 763.641 725.631 769.132 724.376C773.538 723.368 777.871 715.864 781.253 704.07C782.637 699.241 783.774 694.046 784.677 688.848L784.905 687.507C785.086 686.412 785.248 685.372 785.389 684.398L785.556 683.218L785.72 681.951C785.913 680.305 787.404 679.128 789.049 679.32Z" fill="#C770F0"/>
<path fill-rule="evenodd" clip-rule="evenodd" d="M772.499 677.861C774.123 678.192 775.17 679.776 774.84 681.399L774.739 681.875C774.658 682.246 774.562 682.675 774.451 683.157C774.134 684.526 773.756 686.048 773.317 687.687C772.061 692.373 770.564 697.062 768.821 701.457L768.395 702.516C763.608 714.208 757.937 721.637 750.659 722.765C742.779 723.986 737.442 721.51 734.73 716.584C733.968 715.198 733.486 713.739 733.219 712.284C733.056 711.398 733 710.68 733 710.2C733 708.544 734.343 707.2 736 707.2C737.598 707.2 738.904 708.449 738.995 710.024L739.005 710.324C739.016 710.506 739.049 710.811 739.121 711.202C739.278 712.061 739.561 712.916 739.987 713.691C741.455 716.359 744.301 717.679 749.741 716.836C754.341 716.123 759.12 709.648 763.244 699.246C764.892 695.088 766.321 690.612 767.522 686.134L767.826 684.979C768.07 684.035 768.292 683.139 768.489 682.301L768.724 681.285L768.96 680.201C769.291 678.578 770.876 677.53 772.499 677.861Z" fill="#C770F0"/>
<path fill-rule="evenodd" clip-rule="evenodd" d="M711.363 676.535C717.636 671.241 725.788 673.461 733.842 686.307C734.722 687.71 734.297 689.562 732.894 690.442C731.49 691.322 729.638 690.898 728.758 689.494C725.148 683.736 721.946 680.84 719.315 680.123C717.748 679.697 716.442 680.099 715.232 681.12C715.006 681.312 714.809 681.502 714.644 681.675L714.562 681.764L714.569 681.878C714.582 682.062 714.604 682.271 714.637 682.505L714.673 682.747C714.866 683.955 715.279 685.391 715.972 687.055C717.944 691.79 721.757 697.427 727.886 703.945C731.05 707.311 733.304 707.519 735.874 705.427C738.497 703.292 741.125 698.926 743.515 693.057C744.858 689.76 746.042 686.207 747.051 682.652L747.343 681.607C747.529 680.926 747.7 680.277 747.855 679.667L748.093 678.708L748.271 677.949C748.631 676.332 750.233 675.312 751.851 675.672C753.41 676.018 754.414 677.521 754.162 679.078L754.117 679.301L753.925 680.117C753.884 680.288 753.839 680.471 753.791 680.664L753.545 681.633C753.33 682.464 753.089 683.354 752.823 684.291C751.758 688.043 750.507 691.797 749.072 695.32C746.332 702.048 743.26 707.151 739.662 710.08C734.597 714.203 728.79 713.667 723.514 708.055C716.916 701.037 712.7 694.804 710.433 689.362C708.925 685.741 708.434 682.884 708.571 680.839L708.59 680.606C708.607 680.423 708.628 680.271 708.651 680.151C708.72 679.78 708.858 679.425 709.06 679.105C709.505 678.395 710.265 677.462 711.363 676.535Z" fill="#C770F0"/>
<path fill-rule="evenodd" clip-rule="evenodd" d="M676.5 682.1C641.1 653.4 629.2 581.2 644.1 565.4C644.7 560.4 656.2 568.8 663.1 569.6C679.8 571.5 687 572 687 572C680.2 592.8 687.8 618 695.5 635.9C700 646.6 704.7 655 707 658.9C705.7 659.6 700.3 662.2 687.5 667.8C680.2 671.1 678.7 676.6 676.5 682.1Z" fill="#C770F0"/>
<path fill-rule="evenodd" clip-rule="evenodd" d="M395.851 570.754C406.577 567.179 420.818 565.077 433.333 566.212C450.682 567.785 463.741 575.225 470.05 589.701C470.712 591.22 470.017 592.988 468.499 593.65C466.98 594.312 465.212 593.617 464.55 592.098C459.231 579.893 448.149 573.58 432.792 572.187C421.171 571.134 407.739 573.116 397.749 576.446C396.177 576.97 394.478 576.12 393.954 574.548C393.43 572.977 394.279 571.278 395.851 570.754Z" fill="#C770F0"/>
<path fill-rule="evenodd" clip-rule="evenodd" d="M525.717 575.128C603.16 559.825 649.676 555.48 657.504 567.348C657.564 567.439 657.619 567.533 657.669 567.629L657.739 567.776L694.539 650.176C694.896 650.975 694.885 651.886 694.517 652.672L694.405 652.889L693.749 654.095L693.268 654.991C692.855 655.765 692.412 656.603 691.945 657.497C690.077 661.073 688.209 664.805 686.469 668.503C685.588 670.373 684.762 672.19 683.999 673.938C681.108 680.567 679.27 685.9 678.814 689.272L678.78 689.549C677.237 702.724 672.386 708.014 648.741 720.307L646.384 721.533C641.083 724.332 618.278 736.6 608.569 741.707C585.829 753.67 564.003 764.602 541.745 774.958C516.11 786.886 491.535 797.263 468.218 805.799C437.958 816.878 410.57 824.576 386.568 828.363C384.931 828.621 383.395 827.504 383.137 825.867C382.878 824.231 383.996 822.695 385.632 822.436C409.203 818.717 436.233 811.12 466.155 800.165C489.3 791.692 513.723 781.379 539.213 769.518C560.411 759.656 581.224 749.264 602.825 737.946L608.169 735.134C619.643 729.06 641.979 717.041 644.526 715.733L646.572 714.673C667.621 703.708 671.416 699.707 672.74 689.506L672.82 688.854C673.297 684.743 675.302 678.869 678.5 671.539C679.286 669.736 680.136 667.868 681.04 665.948C682.819 662.168 684.723 658.363 686.627 654.719L687.456 653.142L688.455 651.269L652.378 570.488L652.324 570.417C649.335 566.709 635.035 565.559 612.207 567.593L610.792 567.722C589.14 569.744 560.607 574.35 526.88 581.014C515.324 583.298 503.304 585.795 490.927 588.472C470.053 592.988 449.102 597.808 428.981 602.646L422.762 604.148C416.684 605.624 411.072 607.006 406.005 608.271L402.604 609.124L397.546 610.405C395.942 610.818 394.307 609.851 393.894 608.246C393.497 606.699 394.381 605.123 395.884 604.643L396.114 604.579L403.543 602.702L409.809 601.144C413.794 600.158 418.059 599.114 422.572 598.021L423.809 597.721C445.117 592.569 467.428 587.417 489.659 582.608C502.069 579.923 514.124 577.419 525.717 575.128Z" fill="#C770F0"/>
<path fill-rule="evenodd" clip-rule="evenodd" d="M501.62 306.501L501.796 306.502C503.452 306.555 504.752 307.94 504.698 309.596L502.987 362.502L502.916 364.732L503.04 365.08C508.081 379.082 518.274 397.599 536.422 426.9L537.119 428.026L541.897 430.557C576.3 448.832 599.239 462.238 629.436 482.832L632.641 485.027L632.87 484.542C640.406 468.379 647.775 429.163 650.444 391.764L650.607 389.402C650.716 387.749 652.145 386.497 653.798 386.607C655.451 386.716 656.703 388.145 656.593 389.798C653.822 431.69 645.195 476.172 636.268 490.951C635.374 492.431 633.417 492.851 631.994 491.868L629.622 490.232C596.236 467.274 572.327 453.393 533.6 432.953C533.129 432.705 532.733 432.335 532.452 431.883L529.596 427.268C511.92 398.596 502.03 380.393 497.068 366.19C496.946 365.841 496.89 365.474 496.902 365.105L498.702 309.404C498.753 307.807 500.043 306.542 501.62 306.501Z" fill="#C770F0"/>
<path fill-rule="evenodd" clip-rule="evenodd" d="M488.621 233.213C490.271 233.059 491.733 234.272 491.887 235.922C492.041 237.571 490.829 239.033 489.179 239.187C482.723 239.79 476.017 241.624 470.678 245.266C463.04 250.477 459.706 258.516 462.143 270.617C464.066 280.318 469.015 285.576 476.543 287.535C482.573 289.104 489.965 288.479 497.799 286.309C499.396 285.867 501.049 286.803 501.491 288.4C501.933 289.997 500.997 291.649 499.401 292.092C490.641 294.517 482.271 295.225 475.032 293.341C465.275 290.802 458.628 283.74 456.259 271.793C453.346 257.322 457.679 246.871 467.297 240.31C473.641 235.981 481.244 233.902 488.621 233.213Z" fill="#C770F0"/>
<path fill-rule="evenodd" clip-rule="evenodd" d="M686.913 177.425C688.556 177.211 690.061 178.369 690.275 180.012C695.02 216.453 694.053 258.493 688.975 297.784C688.763 299.427 687.259 300.587 685.615 300.375C683.972 300.163 682.812 298.658 683.025 297.015C688.041 258.2 688.997 216.661 684.325 180.787C684.111 179.144 685.27 177.639 686.913 177.425Z" fill="#C770F0"/>
<path fill-rule="evenodd" clip-rule="evenodd" d="M683.026 296.909C683.241 295.267 684.748 294.11 686.391 294.326C688.034 294.542 689.19 296.048 688.974 297.691L688.555 300.821C686.907 312.883 685.065 323.643 683.231 332.04C682.877 333.659 681.279 334.685 679.66 334.331C678.041 333.978 677.016 332.379 677.369 330.76L677.677 329.326C679.528 320.582 681.386 309.389 683.026 296.909Z" fill="#C770F0"/>
<path fill-rule="evenodd" clip-rule="evenodd" d="M510.782 240.408L488.782 242.008C487.025 242.136 485.77 243.737 486.034 245.454L486.128 245.916L488.589 257.333L489.464 261.361C491.692 271.587 493.952 281.813 496.142 291.529L497.446 297.288L499.045 304.275C502.937 321.175 506.026 333.736 508.058 340.659L508.328 341.568C515.394 365.083 521.532 373.646 546.149 391.337C560.236 401.459 581.582 408.275 602.182 408.911C625.736 409.64 646.138 402.485 659.093 387.135C667.286 377.397 673.738 364.523 678.691 349.272C682.682 336.98 685.484 323.842 687.31 310.709C687.948 306.115 688.42 301.847 688.749 298.013L688.831 297.032C688.87 296.556 688.905 296.101 688.936 295.668L689.038 294.173L689.097 293.139C689.16 291.762 688.277 290.518 686.956 290.125C681.044 288.365 671.303 287.129 659.085 286.285C655.409 286.031 651.715 285.829 648.123 285.672L646.336 285.597C645.059 285.546 643.865 285.503 642.771 285.468L640.366 285.401L640.255 285.401C614.541 285.786 590.239 288.614 568.021 293.087C559.995 294.703 552.777 296.431 546.455 298.165L544.94 298.585C543.718 298.929 542.58 299.259 541.53 299.572L540.48 299.889L540.415 299.662C535.049 281.291 519.581 247.841 513.138 241.296C512.521 240.669 511.66 240.344 510.782 240.408ZM509.727 246.5L509.832 246.634C516.448 255.151 531.669 288.874 535.487 304.416C535.893 306.07 537.585 307.042 539.202 306.591L540.685 306.11L541.336 305.905C542.986 305.39 544.934 304.814 547.166 304.193L548.935 303.708C554.912 302.091 561.694 300.482 569.205 298.969L570.7 298.672C591.669 294.538 614.505 291.896 638.62 291.43L640.272 291.401L642.05 291.449C643.269 291.486 644.626 291.533 646.096 291.592C650.188 291.756 654.445 291.979 658.671 292.271L660.865 292.429C669.803 293.1 677.249 294.004 682.39 295.146L682.949 295.273L682.85 296.551C682.826 296.858 682.799 297.174 682.771 297.5L682.613 299.253C682.305 302.521 681.895 306.087 681.367 309.883C679.587 322.692 676.855 335.497 672.984 347.419C668.251 361.993 662.131 374.203 654.504 383.269C642.87 397.055 624.234 403.59 602.368 402.914C582.925 402.313 562.736 395.868 549.651 386.464L548.26 385.46C526.346 369.57 520.847 361.954 514.473 341.154L513.899 339.253C511.797 332.155 508.437 318.42 504.177 299.815L502.999 294.647L501.995 290.208C500.313 282.747 498.589 274.982 496.871 267.148L494.242 255.089L492.655 247.742L509.727 246.5Z" fill="#C770F0"/>
<path fill-rule="evenodd" clip-rule="evenodd" d="M623.8 340.9C623.8 340.9 640.1 337.6 646.8 344.2L623.8 340.9Z" fill="white"/>
<path fill-rule="evenodd" clip-rule="evenodd" d="M626.076 337.511C629.703 337.053 633.459 336.912 637.025 337.285C642 337.806 646.081 339.28 648.905 342.063C650.086 343.225 650.1 345.125 648.937 346.305C647.775 347.485 645.875 347.5 644.695 346.337C643.012 344.68 640.148 343.645 636.399 343.253C633.355 342.934 630.035 343.058 626.828 343.464C626.29 343.531 625.792 343.603 625.342 343.675L624.529 343.814C624.472 343.825 624.427 343.834 624.395 343.84C622.771 344.169 621.188 343.119 620.86 341.495C620.531 339.871 621.581 338.288 623.205 337.959L623.853 337.839C624.422 337.74 625.174 337.625 626.076 337.511Z" fill="#C770F0"/>
<path fill-rule="evenodd" clip-rule="evenodd" d="M644.263 262.019C645.85 261.84 647.288 262.934 647.556 264.488L647.581 264.663L653.581 317.663C653.811 319.694 651.992 321.337 650.02 320.944L649.85 320.905L631.25 316.105C629.646 315.691 628.681 314.055 629.095 312.451C629.494 310.904 631.03 309.951 632.578 310.256L632.75 310.295L647.129 314.006L641.619 265.338C641.439 263.75 642.533 262.312 644.088 262.044L644.263 262.019Z" fill="#C770F0"/>
<path fill-rule="evenodd" clip-rule="evenodd" d="M664.1 279.4C667.082 279.4 669.5 275.639 669.5 271C669.5 266.36 667.082 262.6 664.1 262.6C661.118 262.6 658.7 266.36 658.7 271C658.7 275.639 661.118 279.4 664.1 279.4Z" fill="#C770F0"/>
<path fill-rule="evenodd" clip-rule="evenodd" d="M611.9 278.4C614.882 278.4 617.3 274.639 617.3 270C617.3 265.36 614.882 261.6 611.9 261.6C608.918 261.6 606.5 265.36 606.5 270C606.5 274.639 608.918 278.4 611.9 278.4Z" fill="#C770F0"/>
<path fill-rule="evenodd" clip-rule="evenodd" d="M591.58 218.979C597.285 214.8 604.255 212.725 612.343 213.933C613.982 214.178 615.112 215.704 614.867 217.343C614.622 218.982 613.096 220.112 611.457 219.867C605.044 218.909 599.627 220.522 595.126 223.819C593.857 224.749 592.764 225.744 591.855 226.732L591.562 227.056C591.293 227.36 591.094 227.605 590.965 227.774L590.86 227.918C589.911 229.276 588.041 229.608 586.682 228.66C585.324 227.711 584.992 225.841 585.94 224.482C586.224 224.077 586.723 223.447 587.441 222.668C588.603 221.405 589.982 220.15 591.58 218.979Z" fill="#C770F0"/>
<path fill-rule="evenodd" clip-rule="evenodd" d="M662.739 212.843C665.822 212.36 669.096 212.344 672.253 213.125C677.58 214.442 681.586 217.853 683.366 223.615C683.855 225.198 682.969 226.878 681.386 227.367C679.803 227.856 678.123 226.969 677.634 225.386C676.512 221.756 674.2 219.787 670.813 218.95C668.545 218.389 666.028 218.401 663.667 218.771L663.294 218.832C663.006 218.882 662.777 218.929 662.616 218.965L662.455 219.004C660.851 219.421 659.213 218.459 658.797 216.855C658.38 215.252 659.342 213.614 660.945 213.197C661.319 213.1 661.932 212.969 662.739 212.843Z" fill="#C770F0"/>
<path fill-rule="evenodd" clip-rule="evenodd" d="M721.8 171.8C720.5 167.9 722 163.2 724.7 158.5L724 157.7L720.6 167.2C720.6 167.2 710 171.8 706.5 158.2C705.4 154 707.9 149 711.8 144L711.7 143.9C697 147.3 668.1 152.9 665.5 147.1C661.8 138.9 713.8 117.1 729.7 110.2C737.8 106.6 765.9 98.9004 781.1 96.7004C787.3 95.8004 798.5 95.0004 811.3 96.3004C812.4 87.3004 810.9 78.2004 806.1 69.4004C801.2 60.3004 790.9 46.9004 781.8 42.0004C691.5 -5.89965 647.5 75.0004 647.5 75.0004C647.5 75.0004 634.8 40.2004 593.6 39.0004C576.8 38.5004 560.4 45.1004 548.5 57.0004C514.8 90.8004 537.3 129 537.3 129C537.3 129 521.6 121 500.4 131.2C475.1 143.4 462.4 172.1 469 199.4C476 228.4 488.9 256 488.9 256C571.1 268.7 592.1 188 580 177.6C598.2 191.1 631 200.1 686.5 194.5C699.2 193.2 714.8 188.2 730.7 180.6C727.5 180.3 724 178.3 721.8 171.8Z" fill="#C770F0"/>
<path fill-rule="evenodd" clip-rule="evenodd" d="M798.075 161.189C799.625 160.803 801.194 161.699 801.664 163.205L801.711 163.375L814.053 212.932L885.247 191.824C886.779 191.37 888.386 192.196 888.921 193.68L888.976 193.848C889.43 195.379 888.604 196.986 887.12 197.522L886.953 197.577L812.753 219.577C811.171 220.046 809.52 219.149 809.036 217.594L808.989 217.425L795.889 164.825C795.489 163.218 796.467 161.59 798.075 161.189Z" fill="#C770F0"/>
<path fill-rule="evenodd" clip-rule="evenodd" d="M780.663 93.7319C796.649 91.3786 818.087 92.3212 836.471 98.4279C862.929 107.217 880.604 125.456 885.423 154.751L885.537 155.475L896.098 194.924C896.503 196.437 895.676 197.995 894.222 198.521L894.052 198.576L823.452 219.476C821.863 219.947 820.194 219.04 819.723 217.451C819.27 215.92 820.097 214.313 821.581 213.778L821.748 213.723L889.546 193.652L879.702 156.876C879.688 156.823 879.675 156.771 879.664 156.718L879.635 156.558C875.398 129.123 859.292 112.331 834.579 104.122C817.469 98.4381 797.336 97.472 782.278 99.5619L781.53 99.669C767.586 101.687 739.937 109.042 731.176 112.828L721.176 117.156C720.11 117.621 719.079 118.071 718.038 118.528L715.612 119.598C710.419 121.895 705.625 124.076 701.058 126.232C696.941 128.176 693.132 130.044 689.651 131.835L688.344 132.512C681.683 135.984 676.452 139.079 672.902 141.706C670.942 143.157 669.553 144.427 668.798 145.433C668.726 145.53 668.662 145.62 668.606 145.704L668.493 145.883L668.67 145.954C669.407 146.227 670.524 146.429 671.963 146.533C674.861 146.741 678.853 146.54 683.713 145.97C691.69 145.036 701.56 143.166 711.024 140.977C712.638 140.604 714.249 141.61 714.623 143.224C714.996 144.838 713.99 146.449 712.376 146.823C703.073 148.975 693.391 150.823 685.334 151.818L684.412 151.93C671.935 153.392 664.803 152.879 662.765 148.334C660.045 142.304 668.314 136.103 686.357 126.783L686.906 126.499C690.452 124.676 694.321 122.778 698.496 120.807L700.642 119.799C704.969 117.78 709.508 115.73 714.396 113.576L719.426 111.375L729.093 107.194C738.673 103.15 766.38 95.7992 780.663 93.7319Z" fill="#C770F0"/>
<path fill-rule="evenodd" clip-rule="evenodd" d="M817.157 151.49C818.543 150.583 820.402 150.971 821.31 152.357C822.217 153.743 821.829 155.603 820.443 156.51C815.51 159.741 805.005 164.94 794.892 168.997C781.967 174.182 770.786 177.193 763.124 176.999C761.468 176.957 760.159 175.581 760.201 173.924C760.243 172.268 761.62 170.959 763.276 171.001C769.897 171.169 780.442 168.329 792.658 163.429L794.32 162.753C803.565 158.945 812.854 154.307 817.157 151.49Z" fill="#C770F0"/>
<path fill-rule="evenodd" clip-rule="evenodd" d="M739.379 119.911C740.312 121.28 739.959 123.146 738.589 124.079L737.734 124.676L737.325 124.966C736.299 125.698 735.154 126.538 733.92 127.471C730.394 130.138 726.868 133.014 723.587 135.986C719.5 139.687 716.095 143.267 713.606 146.594C710.164 151.195 708.743 154.98 709.404 157.547C710.445 161.56 712.104 163.676 714.163 164.545C715.583 165.145 717.197 165.143 718.729 164.753C718.878 164.715 719.016 164.675 719.14 164.636L719.428 164.538C720.953 163.891 722.714 164.602 723.361 166.128C724.009 167.653 723.297 169.414 721.772 170.061C721.427 170.208 720.897 170.392 720.21 170.567C717.52 171.253 714.631 171.255 711.83 170.073C707.944 168.432 705.082 164.784 703.595 159.048C702.365 154.271 704.374 148.919 708.801 143C711.552 139.323 715.21 135.477 719.559 131.538C722.984 128.437 726.643 125.452 730.301 122.685L731.244 121.978C731.86 121.518 732.452 121.083 733.016 120.675L734.272 119.776L735.211 119.121C736.58 118.188 738.446 118.541 739.379 119.911Z" fill="#C770F0"/>
<path fill-rule="evenodd" clip-rule="evenodd" d="M748.023 133.503C749.031 134.736 748.894 136.531 747.741 137.599L747.569 137.748L747.002 138.222L746.603 138.561C745.792 139.256 744.885 140.055 743.908 140.943C741.114 143.481 738.32 146.225 735.721 149.064C732.353 152.743 729.572 156.302 727.583 159.605C724.739 164.331 723.737 168.185 724.64 170.832C725.856 174.402 727.48 176.375 729.353 177.233C730.873 177.928 732.592 177.888 734.258 177.364L734.567 177.262C734.799 177.18 734.971 177.108 735.068 177.063L735.117 177.038C736.587 176.274 738.398 176.847 739.162 178.317C739.926 179.787 739.353 181.599 737.883 182.363C737.484 182.57 736.864 182.835 736.058 183.088C733.1 184.018 729.923 184.092 726.856 182.689C723.383 181.099 720.681 177.815 718.96 172.769C717.356 168.063 718.776 162.604 722.443 156.511C724.663 152.822 727.679 148.962 731.296 145.012C734.03 142.026 736.951 139.157 739.873 136.502L740.731 135.729C741.291 135.228 741.825 134.759 742.329 134.324L742.921 133.816L743.802 133.077C745.085 132.029 746.975 132.219 748.023 133.503Z" fill="#C770F0"/>
<path fill-rule="evenodd" clip-rule="evenodd" d="M755.067 149.906C756.334 148.839 758.226 149 759.294 150.267C760.362 151.534 760.2 153.427 758.933 154.494L758.416 154.94L758.153 155.171C757.514 155.735 756.798 156.383 756.027 157.103C753.823 159.16 751.619 161.377 749.569 163.661C747.101 166.412 745.033 169.069 743.501 171.536L743.139 172.129C739.231 178.66 739.789 182.067 745.703 183.71C757.366 186.949 765.183 187.095 769.859 185.535C770.167 185.432 770.435 185.329 770.666 185.228L770.78 185.176L770.816 185.083C771.228 183.94 771.312 182.798 770.936 181.801L770.848 181.589C769.746 179.158 765.804 177.212 757.672 176.592C756.02 176.466 754.783 175.024 754.909 173.372C755.035 171.72 756.476 170.483 758.128 170.609C768.217 171.378 774.13 174.298 776.313 179.112C777.53 181.796 777.385 184.557 776.459 187.121C776.189 187.87 775.906 188.449 775.682 188.828C775.498 189.139 775.26 189.413 774.978 189.639C774.366 190.131 773.31 190.708 771.758 191.227C765.85 193.198 756.837 193.03 744.097 189.491C733.239 186.475 732.289 178.213 738.405 168.37C740.144 165.57 742.419 162.647 745.103 159.655C747.282 157.227 749.608 154.887 751.933 152.716L752.728 151.982C752.986 151.745 753.237 151.517 753.48 151.299L754.602 150.306C754.806 150.128 754.962 149.994 755.067 149.906Z" fill="#C770F0"/>
<path fill-rule="evenodd" clip-rule="evenodd" d="M791.6 222.4C805.8 241.2 901.9 227 917.7 202.7C910.1 192.3 904.1 198.2 900.7 192.1C892.7 177.4 889.5 170.9 889.5 170.9C872.8 185.1 846.6 187.6 827.1 187.2C815.5 187.1 805.9 185.9 801.4 185.3C801.3 186.8 800.9 192.8 800.5 206.7C800.4 214.8 795.9 218.4 791.6 222.4Z" fill="#C770F0"/>
<path fill-rule="evenodd" clip-rule="evenodd" d="M1316.3 546.2H927.5C922.4 546.2 918 549.7 916.8 554.7L862.7 783.5H721.8C721.8 783.5 714 823.8 759.5 823.8H1255.9C1261 823.8 1265.4 820.3 1266.6 815.3L1327 559.7C1328.6 552.8 1323.4 546.2 1316.3 546.2Z" fill="#C770F0"/>
<path fill-rule="evenodd" clip-rule="evenodd" d="M1284.2 643.4C1259.6 643.4 1240.3 622.4 1242.3 597.9C1243.8 579.8 1244 568.6 1245.9 560.2C1248.5 548.6 1270.8 532.7 1296.9 513.5C1310.6 503.5 1320.1 494.1 1325.4 485.4C1330.7 476.7 1333.4 466 1333.4 453.2C1333.4 437.4 1328.4 424.9 1318.3 415.8C1308.3 406.7 1296.1 402.2 1281.8 402.2C1253.4 402.2 1234.4 417.2 1224.6 447.3C1218.1 467.3 1198 479.5 1177.2 476.6C1149.5 472.7 1133 443.9 1143.3 417.9C1152.6 394.4 1165.9 375.2 1183.2 360.2C1211.9 335.4 1247.1 323 1288.5 323C1330.8 323 1366.3 335.2 1394.9 359.5C1423.5 383.9 1437.9 414.8 1437.9 452.2C1437.9 498.6 1414.1 537.4 1366.4 568.6C1345.7 582.3 1333.1 593 1328.7 600.7C1327.2 603.3 1326 606.6 1325 610.7C1320.6 629.8 1303.8 643.4 1284.2 643.4ZM1289.9 768.7H1286.1C1259.4 768.7 1237.7 747 1237.7 720.3C1237.7 693.6 1259.4 671.9 1286.1 671.9H1289.9C1316.6 671.9 1338.3 693.6 1338.3 720.3C1338.3 747.1 1316.7 768.7 1289.9 768.7Z" fill="#FE7624"/>
<path fill-rule="evenodd" clip-rule="evenodd" d="M296.6 233.9C291.1 236.3 284.8 233.5 282.9 227.8C281.5 223.6 280.5 221.1 280.1 219.1C279.6 216.3 283 210.6 286.9 203.8C289 200.3 290.2 197.3 290.5 194.8C290.9 192.4 290.4 189.7 289.2 186.9C287.7 183.4 285.4 181.1 282.3 180.1C279.2 179 276.1 179.2 272.9 180.6C266.6 183.3 263.8 188.5 264.5 196.1C265 201.2 261.7 205.8 256.8 207.2C250.3 209 243.8 204.2 243.6 197.4C243.4 191.3 244.5 185.7 246.9 180.7C250.9 172.4 257.5 166.3 266.7 162.3C276.1 158.2 285.1 157.5 293.9 160.2C302.6 162.9 308.8 168.3 312.4 176.6C316.9 186.9 315.3 197.8 307.7 209.3C304.4 214.3 302.7 217.9 302.4 220C302.3 220.7 302.4 221.6 302.5 222.6C303.4 227.4 301 232 296.6 233.9ZM309.9 261.2L309 261.6C303.1 264.2 296.2 261.4 293.6 255.5C291 249.6 293.8 242.7 299.7 240.1L300.6 239.7C306.5 237.1 313.4 239.9 316 245.8C318.6 251.7 315.9 258.6 309.9 261.2Z" fill="#FE7624"/>
<path fill-rule="evenodd" clip-rule="evenodd" d="M349.8 105.9C341.7 105.5 335.7 98.2003 336.8 90.2003C337.6 84.3003 337.9 80.6003 338.7 77.8003C339.8 74.0003 347.4 69.2003 356.4 63.3003C361.1 60.2003 364.4 57.3003 366.3 54.6003C368.2 51.8003 369.3 48.4003 369.5 44.1003C369.8 38.9003 368.4 34.7003 365.2 31.5003C362.1 28.3003 358.1 26.6003 353.4 26.3003C344 25.8003 337.5 30.4003 333.7 40.1003C331.2 46.6003 324.3 50.2003 317.5 48.9003C308.5 47.1003 303.5 37.3003 307.4 28.9003C310.9 21.3003 315.6 15.2003 321.6 10.6003C331.5 3.00027 343.3 -0.499734 357 0.300266C370.9 1.10027 382.4 5.70027 391.4 14.3003C400.4 22.9003 404.6 33.3003 403.9 45.6003C403.1 60.9003 394.5 73.2003 378.2 82.7003C371.1 86.8003 366.8 90.1003 365.2 92.6003C364.7 93.4003 364.2 94.5003 363.8 95.8003C362.1 102.1 356.3 106.2 349.8 105.9ZM349.4 147.3L348.1 147.2C339.3 146.7 332.5 139.2 333 130.4C333.5 121.6 341 114.8 349.8 115.3L351.1 115.4C359.9 115.9 366.7 123.4 366.2 132.2C365.8 141 358.2 147.8 349.4 147.3Z" fill="#FE7624"/>
<path fill-rule="evenodd" clip-rule="evenodd" d="M1517.2 822.3C1518.86 822.3 1520.2 823.643 1520.2 825.3C1520.2 826.897 1518.95 828.203 1517.38 828.295L1517.2 828.3H3.7C2.04314 828.3 0.699997 826.957 0.699997 825.3C0.699997 823.702 1.94892 822.396 3.52372 822.305L3.7 822.3H1517.2Z" fill="#C770F0"/>
</svg>
