<svg width="1481" height="745" viewBox="0 0 1481 745" fill="none" xmlns="http://www.w3.org/2000/svg">
<rect x="85.6113" y="174.364" width="131.196" height="131.196" transform="rotate(10.9998 85.6113 174.364)" fill="#FEBA91"/>
<path fill-rule="evenodd" clip-rule="evenodd" d="M95.7668 215.971C96.1022 214.408 97.5974 213.394 99.1563 213.635L99.3297 213.667L190.63 233.267C192.25 233.615 193.281 235.21 192.933 236.83C192.598 238.392 191.103 239.407 189.544 239.165L189.37 239.133L98.0703 219.533C96.4504 219.186 95.4191 217.59 95.7668 215.971Z" fill="#C770F0"/>
<path fill-rule="evenodd" clip-rule="evenodd" d="M92.4667 233.071C92.8019 231.508 94.2969 230.493 95.8559 230.735L96.0293 230.767L184.129 249.667C185.749 250.014 186.781 251.609 186.433 253.229C186.098 254.791 184.603 255.806 183.044 255.565L182.871 255.533L94.7707 236.633C93.1507 236.286 92.1192 234.691 92.4667 233.071Z" fill="#C770F0"/>
<path fill-rule="evenodd" clip-rule="evenodd" d="M86.7669 250.57C87.1025 249.008 88.5978 247.993 90.1567 248.235L90.3301 248.267L157.83 262.767C159.45 263.115 160.481 264.71 160.133 266.33C159.798 267.892 158.302 268.907 156.743 268.665L156.57 268.633L89.0699 254.133C87.45 253.785 86.4189 252.19 86.7669 250.57Z" fill="#C770F0"/>
<rect x="0.60202" y="288.769" width="131.2" height="131.2" transform="rotate(-23.6094 0.60202 288.769)" fill="#FEBA91"/>
<path fill-rule="evenodd" clip-rule="evenodd" d="M102.26 294.225C103.792 293.595 105.545 294.327 106.175 295.86C106.782 297.337 106.123 299.02 104.701 299.703L104.54 299.775L47.8403 323.075C46.3078 323.704 44.5549 322.973 43.9252 321.44C43.3179 319.962 43.9767 318.28 45.3986 317.597L45.5597 317.525L102.26 294.225Z" fill="#C770F0"/>
<path fill-rule="evenodd" clip-rule="evenodd" d="M83.6625 327.124C85.1956 326.496 86.9477 327.23 87.576 328.763C88.1818 330.241 87.5213 331.923 86.0987 332.605L85.9375 332.676L59.3375 343.576C57.8044 344.204 56.0523 343.471 55.424 341.938C54.8182 340.459 55.4787 338.777 56.9013 338.096L57.0625 338.024L83.6625 327.124Z" fill="#C770F0"/>
<path fill-rule="evenodd" clip-rule="evenodd" d="M70.4 251.7L69 258.9L119.3 240.2L158.4 322.2L165.5 323.5L122.4 232.3L70.4 251.7Z" fill="white"/>
<path fill-rule="evenodd" clip-rule="evenodd" d="M1417 432.5H899.7C864.6 432.5 836.1 404 836.1 368.9V0H1480.6V368.9C1480.6 404.1 1452.1 432.5 1417 432.5Z" fill="#C770F0"/>
<path fill-rule="evenodd" clip-rule="evenodd" d="M1044.2 388.7L952.4 370.9L924.8 314.8L940.4 234.9L1069.2 259.9L1044.2 388.7Z" fill="#FEBA91"/>
<path fill-rule="evenodd" clip-rule="evenodd" d="M957.446 270.374C957.726 268.801 959.185 267.734 960.751 267.92L960.926 267.946L1036.23 281.346C1037.86 281.637 1038.94 283.194 1038.65 284.826C1038.37 286.398 1036.92 287.465 1035.35 287.279L1035.17 287.254L959.874 273.854C958.243 273.563 957.156 272.006 957.446 270.374Z" fill="white"/>
<path fill-rule="evenodd" clip-rule="evenodd" d="M955.146 283.575C955.426 282.002 956.885 280.935 958.451 281.121L958.626 281.147L1033.93 294.547C1035.56 294.837 1036.64 296.394 1036.35 298.026C1036.07 299.599 1034.62 300.666 1033.05 300.48L1032.87 300.454L957.574 287.054C955.943 286.763 954.856 285.206 955.146 283.575Z" fill="white"/>
<path fill-rule="evenodd" clip-rule="evenodd" d="M953.047 297.471C953.328 295.898 954.788 294.833 956.354 295.02L956.529 295.046L1001.23 303.046C1002.86 303.338 1003.94 304.897 1003.65 306.528C1003.37 308.101 1001.91 309.166 1000.35 308.979L1000.17 308.953L955.472 300.953C953.841 300.661 952.755 299.102 953.047 297.471Z" fill="white"/>
<path fill-rule="evenodd" clip-rule="evenodd" d="M925.26 313.304C925.577 311.738 927.061 310.706 928.622 310.93L928.796 310.96L965.796 318.46C967.382 318.781 968.416 320.297 968.163 321.873L968.129 322.049L957.629 369.449C957.271 371.066 955.669 372.087 954.051 371.729C952.491 371.383 951.486 369.882 951.738 368.324L951.771 368.151L961.61 323.733L927.604 316.84C926.038 316.523 925.006 315.039 925.23 313.478L925.26 313.304Z" fill="white"/>
<path fill-rule="evenodd" clip-rule="evenodd" d="M836.1 67C837.757 67 839.1 68.3431 839.1 70C839.1 71.5977 837.851 72.9037 836.276 72.9949L836.1 73H815.878L815.663 74.7238C815.499 76.004 815.312 77.3858 815.103 78.8643L814.897 80.298C813.747 88.2025 812.218 97.0054 810.261 106.483C804.667 133.568 796.758 160.656 786.124 185.966C770.506 223.14 750.339 253.228 724.982 273.667C694.467 298.265 657.603 307.864 614.057 299.85L608.537 298.838C550.112 288.155 506.104 281.254 459.002 276.218L457.529 276.061C391.625 269.079 332.639 267.681 280.825 273.109C219.809 279.5 170.628 295.244 134.985 321.669C94.9495 351.351 72.473 394.189 69.4959 451.856C66.4419 510.526 75.0922 550.212 93.5153 573.162C108.749 592.14 130.385 599.302 157.061 596.732C175.362 594.968 195.056 588.72 214.96 579.398C223.328 575.48 231.162 571.279 238.238 567.081L239.56 566.291C241.07 565.383 242.467 564.52 243.744 563.712L244.81 563.033C245.361 562.678 245.853 562.358 246.283 562.074L247.105 561.525C248.472 560.589 250.339 560.938 251.275 562.305C252.211 563.672 251.862 565.539 250.495 566.475L249.854 566.906C249.427 567.189 248.938 567.509 248.389 567.864L248.052 568.081C246.096 569.338 243.835 570.736 241.3 572.241C234.065 576.534 226.06 580.826 217.505 584.832C197.031 594.421 176.717 600.866 157.636 602.704C129.095 605.454 105.463 597.632 88.8363 576.918C69.3335 552.622 60.3806 511.549 63.504 451.545C66.5724 392.11 89.9207 347.61 131.412 316.849C168.038 289.695 218.206 273.636 280.2 267.141C332.487 261.664 391.872 263.072 458.161 270.095L461.116 270.411C509.314 275.611 554.428 282.776 615.143 293.95C656.956 301.644 692.052 292.505 721.217 268.996C745.696 249.264 765.328 219.974 780.592 183.642C791.061 158.726 798.864 132 804.385 105.27C806.226 96.3578 807.682 88.0542 808.795 80.5532L808.96 79.434C809.29 77.1652 809.568 75.1101 809.797 73.2852L810.049 71.202L810.215 69.7023C810.362 68.2273 811.561 67.0904 813.023 67.0051L813.2 67H836.1Z" fill="#C770F0"/>
<path fill-rule="evenodd" clip-rule="evenodd" d="M831.6 78.9998H815C812.5 78.9998 810.5 76.9998 810.5 74.4998V65.7998C810.5 63.2998 812.5 61.2998 815 61.2998H831.6C834.1 61.2998 836.1 63.2998 836.1 65.7998V74.4998C836.1 76.9998 834 78.9998 831.6 78.9998Z" fill="#FE7624"/>
<path fill-rule="evenodd" clip-rule="evenodd" d="M264.7 561C273.2 554 276.1 510.2 240.4 529.5C204.7 548.8 231.1 576.6 248.6 569.4C266 562.2 264.7 561 264.7 561Z" fill="#FE7624"/>
<path fill-rule="evenodd" clip-rule="evenodd" d="M369.841 265.391C370.647 267.175 369.907 269.263 368.19 270.153L367.87 270.304L366.671 270.857L364.98 271.651C362.485 272.83 359.588 274.234 356.322 275.858L354.228 276.904C345.782 281.142 336.504 286.031 326.583 291.544L325.339 292.237C293.277 310.128 261.215 330.749 231.307 353.805C171.483 399.924 127.987 449.792 107.735 502.327C82.7956 567.022 94.4496 632.657 149.812 698.847C151.111 700.401 150.905 702.713 149.352 704.012C147.799 705.311 145.487 705.105 144.188 703.552C87.1355 635.341 74.9835 566.901 100.893 499.69C121.713 445.682 166.038 394.863 226.83 347.998C257.049 324.702 289.408 303.889 321.766 285.834L324.27 284.442C334.23 278.929 343.537 274.046 352.003 269.818L353.057 269.292C355.658 267.999 358.031 266.843 360.159 265.824L362.929 264.512L364.991 263.558C366.837 262.725 369.008 263.545 369.841 265.391Z" fill="#C770F0"/>
<path fill-rule="evenodd" clip-rule="evenodd" d="M151 708.7C160.2 714.7 202.8 704.4 173.8 676.1C144.8 647.7 126 681.2 138.1 695.8C150.3 710.3 151 708.7 151 708.7Z" fill="#FE7624"/>
<path fill-rule="evenodd" clip-rule="evenodd" d="M405.3 282.5H365C357.7 282.5 351.7 276.6 351.7 269.2C351.7 261.9 357.6 255.9 365 255.9H405.3C412.6 255.9 418.6 261.8 418.6 269.2C418.6 276.6 412.6 282.5 405.3 282.5Z" fill="#FE7624"/>
<path fill-rule="evenodd" clip-rule="evenodd" d="M1304.5 688.3L1264 675.6C1243.3 669.1 1231.8 647.2 1238.3 626.5L1278.4 498.4C1284.9 477.7 1306.8 466.2 1327.5 472.7L1368 485.4C1388.7 491.9 1400.2 513.8 1393.7 534.5L1353.6 662.6C1347.2 683.3 1325.2 694.8 1304.5 688.3Z" fill="white"/>
<path fill-rule="evenodd" clip-rule="evenodd" d="M1275.54 497.501L1235.44 625.604C1228.45 647.869 1240.81 671.462 1263.1 678.462L1303.6 691.163C1325.89 698.162 1349.58 685.77 1356.47 663.486L1396.56 535.396C1403.55 513.132 1391.19 489.539 1368.9 482.538L1328.4 469.838C1306.13 462.846 1282.54 475.207 1275.54 497.501ZM1326.6 475.562L1367.1 488.263C1386.24 494.271 1396.84 514.499 1390.84 533.601L1350.74 661.704C1344.83 680.818 1324.52 691.443 1305.4 685.438L1264.9 672.738C1245.76 666.729 1235.16 646.501 1241.16 627.399L1281.26 499.296C1287.27 480.162 1307.5 469.564 1326.6 475.562Z" fill="#C770F0"/>
<path fill-rule="evenodd" clip-rule="evenodd" d="M1291.8 612.9C1291.8 612.9 1300.8 612.7 1300.8 621C1300.8 621 1293.5 622.4 1291.8 612.9Z" fill="#C770F0"/>
<path fill-rule="evenodd" clip-rule="evenodd" d="M1306.6 637.8C1305.8 637 1304.8 636.3 1303.9 635.7C1305.2 634.6 1306.2 632.8 1306.3 630.8C1306.4 628.6 1305.6 626.6 1304.2 625.4C1305.2 622.9 1306.8 619.4 1308 618.3C1308.6 617.8 1308.6 616.7 1308 616C1307.4 615.3 1306.5 615.1 1305.9 615.7C1304.2 617.3 1302.3 621.8 1301.3 624.2C1301.2 624.2 1301.2 624.2 1301.1 624.2C1298 624.1 1295.3 626.8 1295.1 630.4C1295 631.6 1295.3 632.6 1295.7 633.6C1292.2 633.7 1288.7 634.9 1286 637.2C1280 642.2 1279.6 650.7 1285.1 656.1C1290.6 661.5 1299.9 661.8 1305.9 656.7C1311.7 651.6 1312.1 643.2 1306.6 637.8Z" fill="#C770F0"/>
<rect x="449.089" y="433.734" width="267.306" height="315.507" transform="rotate(-9.43312 449.089 433.734)" fill="#C770F0"/>
<rect x="384.352" y="454.495" width="245.897" height="290.197" transform="rotate(-21.4386 384.352 454.495)" fill="white"/>
<path fill-rule="evenodd" clip-rule="evenodd" d="M612.139 361.826L383.256 451.702C381.713 452.308 380.954 454.049 381.56 455.591L487.628 725.709C488.233 727.252 489.974 728.011 491.517 727.405L720.4 637.529C721.943 636.923 722.702 635.182 722.096 633.64L616.028 363.522C615.423 361.98 613.681 361.22 612.139 361.826ZM611.539 368.507L715.414 633.041L492.116 720.724L388.241 456.191L611.539 368.507Z" fill="#C770F0"/>
<path fill-rule="evenodd" clip-rule="evenodd" d="M413.841 486.673C416.176 485.757 418.81 486.907 419.726 489.241C420.615 491.507 419.558 494.055 417.361 495.041L417.159 495.126L374.859 511.726C372.524 512.642 369.89 511.492 368.974 509.158C368.085 506.893 369.142 504.344 371.339 503.359L371.541 503.273L413.841 486.673Z" fill="#C770F0"/>
<path fill-rule="evenodd" clip-rule="evenodd" d="M431.433 531.478C433.765 530.557 436.402 531.701 437.323 534.033C438.216 536.297 437.165 538.848 434.97 539.838L434.767 539.923L392.467 556.623C390.135 557.544 387.498 556.4 386.577 554.068C385.684 551.804 386.735 549.253 388.93 548.263L389.133 548.178L431.433 531.478Z" fill="#C770F0"/>
<path fill-rule="evenodd" clip-rule="evenodd" d="M449.041 576.374C451.376 575.458 454.01 576.607 454.926 578.941C455.815 581.207 454.758 583.755 452.561 584.741L452.359 584.826L410.059 601.426C407.724 602.342 405.09 601.192 404.174 598.858C403.285 596.593 404.342 594.044 406.539 593.059L406.741 592.974L449.041 576.374Z" fill="#C770F0"/>
<path fill-rule="evenodd" clip-rule="evenodd" d="M466.642 621.173C468.976 620.257 471.61 621.407 472.526 623.741C473.415 626.007 472.358 628.555 470.161 629.541L469.959 629.626L427.659 646.226C425.324 647.142 422.69 645.992 421.774 643.658C420.885 641.393 421.942 638.844 424.139 637.859L424.342 637.773L466.642 621.173Z" fill="#C770F0"/>
<path fill-rule="evenodd" clip-rule="evenodd" d="M484.336 665.976C486.669 665.057 489.305 666.204 490.224 668.537C491.116 670.801 490.062 673.351 487.866 674.339L487.664 674.425L445.264 691.125C442.931 692.043 440.295 690.897 439.376 688.564C438.484 686.3 439.538 683.75 441.733 682.762L441.936 682.676L484.336 665.976Z" fill="#C770F0"/>
<path fill-rule="evenodd" clip-rule="evenodd" d="M542.304 475.808C543.846 475.202 545.587 475.962 546.192 477.504C546.776 478.991 546.091 480.663 544.659 481.324L544.496 481.393L463.496 513.193C461.954 513.798 460.213 513.039 459.607 511.497C459.024 510.01 459.709 508.337 461.141 507.677L461.304 507.608L542.304 475.808Z" fill="#FE7624"/>
<path fill-rule="evenodd" clip-rule="evenodd" d="M580.405 477.307C581.947 476.703 583.688 477.463 584.293 479.005C584.876 480.493 584.19 482.164 582.757 482.824L582.595 482.893L501.495 514.693C499.953 515.298 498.212 514.538 497.607 512.996C497.024 511.508 497.71 509.836 499.143 509.177L499.305 509.107L580.405 477.307Z" fill="#FE7624"/>
<path fill-rule="evenodd" clip-rule="evenodd" d="M483.7 515.209C485.242 514.601 486.984 515.359 487.591 516.9C488.177 518.387 487.493 520.06 486.062 520.722L485.9 520.791L469.4 527.291C467.858 527.898 466.116 527.141 465.509 525.599C464.923 524.113 465.607 522.44 467.038 521.778L467.2 521.709L483.7 515.209Z" fill="#FE7624"/>
<path fill-rule="evenodd" clip-rule="evenodd" d="M515.198 561.41C516.739 560.801 518.482 561.557 519.09 563.098C519.677 564.584 518.995 566.257 517.564 566.921L517.402 566.99L489.302 578.09C487.761 578.699 486.019 577.943 485.41 576.402C484.823 574.916 485.505 573.243 486.936 572.579L487.098 572.51L515.198 561.41Z" fill="#FE7624"/>
<path fill-rule="evenodd" clip-rule="evenodd" d="M530.802 536.608C532.344 536.002 534.086 536.76 534.692 538.302C535.277 539.789 534.592 541.462 533.16 542.123L532.998 542.192L482.898 561.892C481.356 562.498 479.614 561.74 479.008 560.198C478.423 558.711 479.108 557.039 480.54 556.378L480.702 556.308L530.802 536.608Z" fill="#FE7624"/>
<path fill-rule="evenodd" clip-rule="evenodd" d="M501.706 527.107C503.249 526.503 504.99 527.264 505.594 528.807C506.176 530.294 505.489 531.966 504.056 532.625L503.894 532.694L475.794 543.694C474.251 544.298 472.51 543.537 471.906 541.994C471.324 540.506 472.011 538.835 473.444 538.176L473.606 538.107L501.706 527.107Z" fill="#FE7624"/>
<path fill-rule="evenodd" clip-rule="evenodd" d="M560.902 503.808C562.444 503.202 564.186 503.961 564.792 505.503C565.377 506.99 564.692 508.662 563.26 509.323L563.098 509.392L516.298 527.792C514.756 528.399 513.014 527.64 512.408 526.098C511.823 524.611 512.508 522.939 513.94 522.278L514.102 522.208L560.902 503.808Z" fill="#FE7624"/>
<path fill-rule="evenodd" clip-rule="evenodd" d="M622.2 454L617 473.2L617.5 654.3H628L627.5 473.1L622.2 454Z" fill="#FE7624"/>
<path fill-rule="evenodd" clip-rule="evenodd" d="M635.538 601.074C637.149 601.041 638.493 602.274 638.617 603.86L638.626 604.038L639.526 647.938C639.56 649.575 638.288 650.93 636.674 651.022L636.5 651.027H617.5C615.828 651.027 614.473 649.671 614.473 648C614.473 646.388 615.733 645.07 617.322 644.978L617.5 644.973L633.41 644.973L632.574 604.162C632.541 602.55 633.774 601.207 635.36 601.083L635.538 601.074Z" fill="#C770F0"/>
<path fill-rule="evenodd" clip-rule="evenodd" d="M619.5 535.6H625.3C627.8 535.6 629.8 533.6 629.8 531.2L630.1 487.3C630.1 484.8 628.1 482.8 625.7 482.8H619.9C617.4 482.8 615.4 484.8 615.4 487.2L615.1 531.1C615.1 533.6 617.1 535.6 619.5 535.6Z" fill="#C770F0"/>
<path fill-rule="evenodd" clip-rule="evenodd" d="M623.078 582.874C624.689 582.915 625.974 584.209 626.025 585.799L626.026 585.977L625.426 609.377C625.383 611.048 623.993 612.368 622.322 612.325C620.711 612.284 619.426 610.991 619.375 609.4L619.374 609.222L619.974 585.822C620.017 584.151 621.407 582.831 623.078 582.874Z" fill="#C770F0"/>
<path fill-rule="evenodd" clip-rule="evenodd" d="M570.4 412.4L567.8 432L592.4 611.5L602.8 610.1L578.2 430.6L570.4 412.4Z" fill="#FE7624"/>
<path fill-rule="evenodd" clip-rule="evenodd" d="M543.8 166.9L472.9 176.3C463.1 177.6 454.1 170.7 452.8 160.9L452.6 159.3C451.3 149.5 458.2 140.5 468 139.2L538.9 129.8L543.8 166.9Z" fill="white"/>
<path fill-rule="evenodd" clip-rule="evenodd" d="M538.506 126.826L467.606 136.226C456.277 137.729 448.271 148.042 449.583 159.348L449.823 161.272C451.344 172.738 461.853 180.792 473.294 179.274L544.194 169.874C545.836 169.656 546.991 168.149 546.774 166.507L541.874 129.407C541.657 127.764 540.149 126.608 538.506 126.826ZM536.318 133.168L540.432 164.32L472.506 173.326C464.35 174.408 456.856 168.665 455.774 160.506L455.577 158.928C454.492 150.75 460.235 143.257 468.394 142.174L536.318 133.168Z" fill="#C770F0"/>
<path fill-rule="evenodd" clip-rule="evenodd" d="M618.7 226.3C670.339 226.3 712.2 184.438 712.2 132.8C712.2 81.1612 670.339 39.2998 618.7 39.2998C567.061 39.2998 525.2 81.1612 525.2 132.8C525.2 184.438 567.061 226.3 618.7 226.3Z" fill="white"/>
<path fill-rule="evenodd" clip-rule="evenodd" d="M618.7 36.2998C565.405 36.2998 522.2 79.5043 522.2 132.8C522.2 186.095 565.405 229.3 618.7 229.3C671.995 229.3 715.2 186.095 715.2 132.8C715.2 79.5043 671.995 36.2998 618.7 36.2998ZM618.7 42.2998C668.682 42.2998 709.2 82.818 709.2 132.8C709.2 182.782 668.682 223.3 618.7 223.3C568.718 223.3 528.2 182.782 528.2 132.8C528.2 82.818 568.718 42.2998 618.7 42.2998Z" fill="#C770F0"/>
<path fill-rule="evenodd" clip-rule="evenodd" d="M618.7 198.9C655.206 198.9 684.8 169.306 684.8 132.8C684.8 96.2942 655.206 66.7002 618.7 66.7002C582.194 66.7002 552.6 96.2942 552.6 132.8C552.6 169.306 582.194 198.9 618.7 198.9Z" fill="#FE7624"/>
<path fill-rule="evenodd" clip-rule="evenodd" d="M842.5 600L842.3 499.1C842.3 490.5 849.2 483.5 857.8 483.5L1114.2 483C1122.8 483 1129.8 489.9 1129.8 498.5L1130 599.4C1130 608 1123.1 615 1114.5 615L858.1 615.5C849.5 615.5 842.5 608.6 842.5 600Z" fill="#FE7624"/>
<path fill-rule="evenodd" clip-rule="evenodd" d="M1108.3 487.7L863.4 488.2C855.496 488.2 849.1 494.791 849.1 502.9L849.3 594.007C849.3 602.029 855.715 608.6 863.6 608.6L1108.51 608.1C1116.36 608.227 1122.7 601.649 1122.7 593.5V571.3L1122.69 571.124C1122.6 569.549 1121.3 568.3 1119.7 568.3L1115.2 568.299L1115.1 527.5H1119.6C1121.26 527.5 1122.6 526.157 1122.6 524.5V502.3C1122.6 494.272 1116.19 487.7 1108.3 487.7ZM1108.31 493.7L1108.55 493.704C1112.97 493.841 1116.6 497.64 1116.6 502.3V521.5H1114.9C1111.63 521.5 1109.1 524.155 1109.1 527.4L1109.2 568.408L1109.2 568.626C1109.32 571.745 1111.88 574.3 1115 574.3L1116.7 574.299V593.5C1116.7 598.278 1113.16 602.034 1108.79 602.101L863.594 602.6C859.061 602.6 855.3 598.747 855.3 594L855.1 502.894C855.1 498.065 858.85 494.2 863.406 494.2L1108.31 493.7Z" fill="white"/>
</svg>
