<svg width="1000" height="1000" viewBox="0 0 520 434" fill="none" xmlns="http://www.w3.org/2000/svg">
<path fill-rule="evenodd" clip-rule="evenodd" d="M336.941 211.227H328.474C325.869 211.227 323.752 208.649 323.752 205.475V192.822L310.628 196.709L314.145 213.528C317.858 275.088 251.262 281.832 248.755 215.154L207.495 227.45V227.411L180.563 234.55L198.507 321.775L235.891 310.787C241.037 322.925 244.814 331.334 244.814 331.334H360.192L336.941 211.227Z" fill="#CD5FF8"/>
<path fill-rule="evenodd" clip-rule="evenodd" d="M45.0401 76.7611C55.1128 76.9145 64.2041 78.505 72.3951 81.4097C72.9131 81.5934 73.2108 82.2538 73.06 82.8848C72.9092 83.5158 72.3669 83.8784 71.8489 83.6947C64.1075 80.9495 55.5289 79.4007 46.0362 79.1615L45.7922 79.1557L45.7429 79.4266C45.5676 80.3999 45.3918 81.5349 45.2274 82.8193C43.9243 93.0015 44.1202 104.806 46.8504 117.148C46.9908 117.783 46.6823 118.436 46.1613 118.607C45.6403 118.778 45.1042 118.402 44.9638 117.767C42.1889 105.223 41.9596 93.2271 43.2501 82.8236L43.2969 82.4527C43.4675 81.1194 43.6507 79.9366 43.8343 78.9167L43.8887 78.6197C43.9153 78.4768 43.9411 78.3422 43.9658 78.2162L44.0714 77.7013C44.0771 77.675 44.082 77.6529 44.086 77.6351C44.2039 77.1134 44.5959 76.7544 45.0401 76.7611Z" fill="#FEFEFE"/>
<path fill-rule="evenodd" clip-rule="evenodd" d="M71.0951 82.2239C71.19 81.577 71.6975 81.1462 72.2287 81.2618C72.7598 81.3774 73.1135 81.9956 73.0186 82.6425C71.1448 95.4159 71.2972 107.842 73.2117 120.01C73.3133 120.656 72.966 121.279 72.4361 121.403C71.9062 121.527 71.3943 121.104 71.2928 120.458C69.3343 108.01 69.1783 95.2912 71.0951 82.2239Z" fill="#FEFEFE"/>
<path fill-rule="evenodd" clip-rule="evenodd" d="M102.36 10.0483C102.658 9.63792 103.148 9.52872 103.546 9.78381L103.705 9.888C103.83 9.97098 103.977 10.0702 104.145 10.1857L104.44 10.3902C104.794 10.6381 105.185 10.9183 105.609 11.2308L105.793 11.3668C107.559 12.6762 109.524 14.2555 111.639 16.1083C117.676 21.3967 123.711 27.8204 129.344 35.4089C132.848 40.1283 136.088 45.1634 139.01 50.5181C139.309 51.0654 139.187 51.804 138.737 52.1678C138.288 52.5316 137.681 52.3829 137.383 51.8356C134.516 46.5817 131.335 41.6392 127.895 37.0051C122.36 29.549 116.428 23.2351 110.498 18.0404C108.524 16.3106 106.685 14.826 105.025 13.5841L104.777 13.3996C104.356 13.0874 103.969 12.8074 103.617 12.5594L103.305 12.3415L103.301 12.3463C86.3404 35.8831 76.5943 59.1377 73.1229 81.9444L73.0186 82.6425C72.9237 83.2894 72.4162 83.7202 71.885 83.6046C71.3539 83.4891 71.0002 82.8709 71.0951 82.224C74.5726 58.5125 84.673 34.3869 102.36 10.0483Z" fill="#FEFEFE"/>
<path fill-rule="evenodd" clip-rule="evenodd" d="M189.996 101.765C201.414 95.9195 214.68 95.3598 229.891 101.009C230.334 101.173 230.621 101.694 230.579 102.255L230.56 102.495L230.512 103.016L230.457 103.574C230.392 104.204 230.313 104.909 230.217 105.685C229.883 108.387 229.422 111.396 228.812 114.635C227.071 123.889 224.491 133.145 220.904 141.794C220.661 142.38 220.073 142.616 219.592 142.319C219.11 142.023 218.917 141.307 219.16 140.721C222.669 132.259 225.199 123.182 226.908 114.103C227.506 110.925 227.958 107.976 228.285 105.331L228.35 104.79C228.402 104.349 228.449 103.935 228.49 103.549L228.545 103.002L228.437 102.963C214.173 97.8708 201.775 98.4348 191.083 103.792L190.753 103.959C181.731 108.577 174.222 116.462 168.099 126.706C164.518 132.697 161.632 139.122 159.383 145.548C158.596 147.795 157.946 149.881 157.424 151.75L157.307 152.174C157.194 152.586 157.094 152.965 157.007 153.308L156.894 153.762L156.821 154.068C156.678 154.701 156.14 155.073 155.62 154.899C155.1 154.724 154.794 154.069 154.937 153.436L155.02 153.086C155.043 152.992 155.068 152.891 155.096 152.781L155.187 152.422C155.298 151.99 155.427 151.51 155.574 150.984C156.111 149.06 156.779 146.919 157.586 144.614C159.889 138.033 162.845 131.453 166.52 125.305C172.839 114.734 180.616 106.567 189.996 101.765Z" fill="#FEFEFE"/>
<path fill-rule="evenodd" clip-rule="evenodd" d="M173.579 14.7756C173.952 14.5027 174.427 14.5621 174.746 14.9215L174.853 15.0435L175.064 15.2923C175.282 15.5524 175.531 15.8558 175.806 16.2021L175.926 16.3531C176.848 17.5179 177.873 18.9001 178.975 20.4955C182.119 25.0445 185.26 30.3961 188.191 36.5175C191.318 43.0493 194.021 50.086 196.173 57.6077C196.35 58.2283 196.081 58.9067 195.572 59.123C195.062 59.3392 194.505 59.0114 194.328 58.3908C192.219 51.0183 189.569 44.1199 186.503 37.7165C183.631 31.7178 180.555 26.4766 177.481 22.0281L177.082 21.4553C176.226 20.2359 175.423 19.1561 174.688 18.2185L174.519 18.0046C174.403 17.8575 174.292 17.7181 174.185 17.5865L173.943 17.289L173.575 17.5615C157.289 29.6636 144.451 43.2028 134.779 57.9635L134.481 58.4204C125.725 71.896 119.715 86.1957 116.143 101.092C115.992 101.723 115.45 102.085 114.932 101.901C114.414 101.717 114.116 101.056 114.268 100.425C122.087 67.8104 141.056 38.6161 173.579 14.7756Z" fill="#FEFEFE"/>
<path fill-rule="evenodd" clip-rule="evenodd" d="M155.98 64.9345C167.674 82.1029 174.406 98.4627 176.77 113.988C176.868 114.634 176.518 115.255 175.987 115.375C175.457 115.495 174.947 115.068 174.848 114.422C172.596 99.6215 166.229 83.9642 155.16 67.4654L154.957 67.1639L154.59 67.3791C154.324 67.5357 154.04 67.7057 153.737 67.889L153.365 68.1153L152.784 68.4725C151.12 69.5033 149.293 70.694 147.341 72.0391C141.106 76.335 134.871 81.3108 129.056 86.9025C117.252 98.2532 108.73 110.636 104.885 123.799C100.143 140.027 102.764 156.679 114.203 173.703C114.545 174.212 114.483 174.962 114.066 175.378C113.648 175.794 113.033 175.719 112.691 175.211C100.826 157.553 98.0687 140.03 103.044 123.001C107.033 109.345 115.779 96.6377 127.845 85.0345C133.745 79.3609 140.062 74.3198 146.379 69.9676L147.072 69.493C149.02 68.1666 150.838 66.9966 152.489 65.9881L152.868 65.7573C153.239 65.533 153.583 65.3279 153.899 65.1422L154.308 64.904L154.824 64.6107C155.225 64.389 155.699 64.5217 155.98 64.9345Z" fill="#FEFEFE"/>
<path fill-rule="evenodd" clip-rule="evenodd" d="M45.854 116.986C67.7896 114.634 87.4598 122.456 104.761 137.801C111.411 143.699 117.442 150.489 122.847 157.846C126.905 163.37 130.317 168.804 133.081 173.835C133.381 174.381 133.261 175.12 132.813 175.486C132.364 175.851 131.758 175.705 131.458 175.159C128.742 170.216 125.385 164.87 121.391 159.433C116.074 152.196 110.143 145.519 103.611 139.725C86.6696 124.699 67.4563 117.059 46.0253 119.357C45.4879 119.415 45.0138 118.931 44.9665 118.276C44.9192 117.621 45.3165 117.044 45.854 116.986Z" fill="#FEFEFE"/>
<path fill-rule="evenodd" clip-rule="evenodd" d="M45.8557 116.986C46.3933 116.93 46.8667 117.415 46.913 118.069C46.9594 118.724 46.5613 119.301 46.0237 119.357C40.0776 119.982 33.9072 121.429 27.5215 123.711L27.0748 123.872L27.2609 124.341C27.34 124.539 27.423 124.744 27.5098 124.956L27.7817 125.614C28.7746 127.992 29.9833 130.645 31.4129 133.504C35.5005 141.678 40.5338 149.854 46.5526 157.483C52.3736 164.86 58.8252 171.335 65.9256 176.657C66.3851 177.001 66.5284 177.734 66.2457 178.294C65.9629 178.853 65.3612 179.028 64.9016 178.683C57.6539 173.252 51.075 166.649 45.1438 159.132C39.0199 151.37 33.902 143.057 29.7441 134.742C28.2878 131.83 27.055 129.123 26.04 126.692L25.8509 126.236C25.6363 125.715 25.4429 125.233 25.2706 124.793L25.1279 124.425C25.0747 124.286 25.026 124.158 24.9818 124.041L24.8284 123.625L24.8204 123.603C24.5892 122.953 24.8728 122.202 25.4286 121.993C32.485 119.339 39.2981 117.676 45.8557 116.986Z" fill="#FEFEFE"/>
<path fill-rule="evenodd" clip-rule="evenodd" d="M206.909 173.227C210.018 173.227 212.549 176.268 212.607 180.039L212.607 180.169V201.152C212.607 204.939 210.111 208.023 207.016 208.092L206.909 208.093L199.286 208.093L194.412 234.18C194.296 234.798 193.805 235.193 193.299 235.089L193.242 235.076C192.735 234.935 192.411 234.337 192.496 233.72L192.507 233.651L197.554 206.639C197.651 206.121 198.017 205.747 198.448 205.716L198.507 205.713H206.909C208.942 205.713 210.602 203.73 210.652 201.268L210.654 201.152V180.169C210.654 177.692 209.026 175.67 207.004 175.609L206.909 175.607H189.551C189.012 175.607 188.574 175.075 188.574 174.417C188.574 173.784 188.981 173.266 189.494 173.229L189.551 173.227H206.909Z" fill="#CD5FF8"/>
<path fill-rule="evenodd" clip-rule="evenodd" d="M144.514 173.267C145.054 173.267 145.491 173.8 145.491 174.457C145.491 175.091 145.084 175.609 144.571 175.645L144.514 175.647H69.5493C67.5155 175.647 65.8561 177.63 65.8056 180.093L65.8044 180.209V201.192C65.8044 203.669 67.4324 205.69 69.4543 205.752L69.5493 205.753H77.3975C77.8337 205.753 78.2144 206.105 78.3352 206.609L78.3501 206.679L101.764 331.943C101.884 332.583 101.555 333.221 101.029 333.367C100.521 333.508 100.016 333.14 99.8735 332.539L99.8592 332.471L76.6179 208.133H69.5493C66.4403 208.133 63.9086 205.092 63.8515 201.322L63.8505 201.192V180.209C63.8505 176.422 66.3469 173.338 69.4424 173.268L69.5493 173.267H144.514Z" fill="#CD5FF8"/>
<path fill-rule="evenodd" clip-rule="evenodd" d="M207.887 227.509L207.948 227.552L293.333 292.643C294.083 293.215 293.873 294.609 293.005 294.819L289.909 295.579C288.798 295.855 287.574 296.16 286.245 296.494L282.627 297.408C278.22 298.529 273.457 299.762 268.413 301.094C250.405 305.851 232.397 310.925 215.536 316.116L214.305 316.496C197.55 321.677 182.856 326.699 170.803 331.46L169.591 331.942C168.589 332.342 167.607 332.74 166.645 333.136C166.134 333.346 165.58 333.012 165.407 332.389C165.234 331.767 165.509 331.091 166.02 330.881L167.19 330.402C168.173 330.003 169.177 329.601 170.2 329.196L171.08 328.85C183.011 324.174 197.436 319.256 213.824 314.189C230.652 308.985 248.652 303.895 266.679 299.117L269.205 298.45C274.409 297.079 279.302 295.818 283.802 294.68L288.664 293.46L290.216 293.075L207.254 229.831L206.063 230.17C205.55 230.317 204.989 230.479 204.382 230.656L203.247 230.988C200.942 231.666 198.422 232.426 195.731 233.259C186.765 236.038 177.746 239.063 169.257 242.233C168.741 242.425 168.194 242.072 168.036 241.444C167.878 240.816 168.168 240.15 168.684 239.957C176.865 236.903 185.532 233.983 194.17 231.288L195.25 230.953C198.098 230.07 200.757 229.27 203.172 228.562L205.221 227.967L207.213 227.401C207.442 227.337 207.681 227.376 207.887 227.509Z" fill="#CD5FF8"/>
<path fill-rule="evenodd" clip-rule="evenodd" d="M174.201 135.724C179.7 133.52 185.257 133.763 190.862 136.717L195.01 138.949C207.967 145.937 214.604 149.89 219.12 153.713L219.256 153.829C222.231 156.371 223.845 158.607 223.949 160.807C224.069 163.36 222.242 165.189 218.665 166.463L218.509 166.518C213.816 168.146 206.597 173.076 197.591 180.51C195.613 182.143 193.568 183.88 191.47 185.708C186.466 190.068 181.381 194.741 176.482 199.415L175.588 200.269C174.513 201.3 173.501 202.279 172.562 203.196L171.494 204.241L170.439 205.282L170.447 206.864L170.453 208.575C170.479 217.491 170.43 227.524 170.252 237.15L170.21 239.288C169.974 250.742 169.572 259.704 168.971 265.301L168.929 265.686C167.795 276.069 165.535 287.264 162.921 296.117C162.738 296.736 162.179 297.057 161.671 296.834C161.163 296.612 160.9 295.93 161.082 295.312C163.604 286.771 165.797 275.979 166.932 265.916L167.034 264.994C167.644 259.31 168.05 249.975 168.281 238.024L168.316 236.166C168.479 226.849 168.525 217.193 168.499 208.583L168.482 204.732C168.479 204.373 168.61 204.031 168.838 203.803L169.966 202.685L170.584 202.078C171.898 200.789 173.371 199.362 174.975 197.83L175.278 197.541C180.197 192.848 185.304 188.155 190.333 183.773C192.445 181.933 194.502 180.184 196.495 178.539L197.315 177.865C205.925 170.819 212.876 166.094 217.674 164.336L218.258 164.128C220.949 163.147 222.049 162.031 221.998 160.944C221.94 159.717 220.646 157.924 218.134 155.778L217.869 155.554C213.675 152.035 207.448 148.291 195.743 141.949L190.295 139.013C185.062 136.188 179.93 135.933 174.811 137.985C168.47 140.52 164.253 143.968 159.616 150.549L159.444 150.794C155.311 156.715 151.499 163.743 141.742 183.051L140.82 184.878L140.796 184.923C123.27 216.368 111.53 251.829 107.794 281.846C104.295 309.965 108.473 328.879 118.627 330.994C119.159 331.105 119.516 331.72 119.425 332.368C119.334 333.015 118.829 333.451 118.297 333.34C106.676 330.919 102.221 310.751 105.862 281.49C109.605 251.417 121.257 216.035 138.65 184.539L139.17 183.601L140.659 180.655C149.951 162.287 153.737 155.329 157.825 149.44L157.956 149.252C162.892 142.18 167.438 138.428 174.201 135.724Z" fill="#CD5FF8"/>
<path fill-rule="evenodd" clip-rule="evenodd" d="M234.205 122.971L234.262 122.974C234.801 123.017 235.208 123.584 235.173 124.24C234.293 140.49 235.889 162.383 238.741 181.022C238.839 181.668 238.49 182.289 237.959 182.41C237.429 182.53 236.919 182.104 236.82 181.458C233.941 162.64 232.331 140.56 233.223 124.083C233.257 123.451 233.691 122.966 234.205 122.971Z" fill="#CD5FF8"/>
<path fill-rule="evenodd" clip-rule="evenodd" d="M313.856 144.722C313.904 144.067 314.378 143.584 314.915 143.642C317.939 143.968 320.828 145.016 323.104 147.092C326.278 149.987 327.776 154.503 327.097 160.733C326.482 166.314 324.184 169.799 320.614 171.339C317.915 172.504 314.687 172.489 311.252 171.658C310.723 171.53 310.379 170.903 310.484 170.259C310.589 169.614 311.103 169.195 311.633 169.323C314.754 170.079 317.653 170.092 319.962 169.096C322.837 167.855 324.642 165.118 325.161 160.418C325.747 155.032 324.532 151.368 321.933 148.997C319.998 147.232 317.437 146.303 314.743 146.012C314.205 145.954 313.808 145.376 313.856 144.722Z" fill="#CD5FF8"/>
<path fill-rule="evenodd" clip-rule="evenodd" d="M308.596 187.028C309.1 186.872 309.613 187.224 309.768 187.82L309.784 187.888L315.092 213.274C315.106 213.341 315.115 213.41 315.12 213.48C315.994 227.972 313.071 240.249 307.054 249.258C301.539 257.515 293.67 262.56 285.173 263.536C276.651 264.514 268.159 261.327 261.497 254.393C254.209 246.809 249.47 235.215 248.109 220.443C248.049 219.79 248.435 219.201 248.971 219.128C249.508 219.055 249.991 219.525 250.051 220.178C251.358 234.37 255.87 245.407 262.766 252.584C269.023 259.095 276.989 262.085 284.989 261.166C292.969 260.25 300.357 255.513 305.538 247.756C311.173 239.319 313.954 227.792 313.195 214.071L313.177 213.758L307.89 188.475C307.762 187.861 308.051 187.237 308.541 187.047L308.596 187.028Z" fill="#CD5FF8"/>
<path fill-rule="evenodd" clip-rule="evenodd" d="M299.536 146.378C299.024 146.328 298.568 146.77 298.492 147.389L297.837 152.699L297.518 155.257C297.164 158.094 296.81 160.901 296.467 163.583L296.031 166.971C295.601 170.295 295.223 173.136 294.91 175.395L294.673 177.083L294.234 176.959C293.993 176.892 293.738 176.822 293.468 176.751L293.264 176.697C291.295 176.179 289.019 175.663 286.462 175.181C276.766 173.355 265.901 172.52 254.307 173.229L253.516 173.315L252.676 173.414C252.18 173.474 251.651 173.54 251.096 173.613C248.915 173.9 246.733 174.232 244.672 174.607L244.112 174.71C240.513 175.385 237.675 176.127 235.846 176.95C235.424 177.14 235.164 177.656 235.214 178.199L235.264 178.695L235.315 179.161C235.351 179.48 235.392 179.828 235.438 180.202L235.466 180.43C235.686 182.187 235.97 184.143 236.327 186.248C237.345 192.266 238.733 198.286 240.551 203.915C242.953 211.351 245.928 217.537 249.554 222.055C255.073 228.931 263.337 231.697 272.66 230.623C280.828 229.682 289.136 225.775 294.471 220.522C303.731 211.404 305.997 207.149 308.191 196.014L308.306 195.421C308.923 192.18 309.815 186.245 310.917 178.22L311.296 175.442L311.546 173.585C312.221 168.549 312.919 163.176 313.603 157.783L314.146 153.482L314.688 149.128C314.772 148.447 314.364 147.821 313.8 147.766L299.536 146.378ZM300.29 148.838L312.6 150.037L311.855 155.981L311.416 159.437C310.944 163.134 310.467 166.803 309.999 170.339L309.451 174.443L309.036 177.496C307.891 185.851 306.969 191.973 306.356 195.126L306.189 195.971C305.165 201.101 304.341 203.863 302.877 206.708L302.798 206.86C300.992 210.321 298.169 213.821 293.243 218.671C288.217 223.62 280.274 227.356 272.476 228.254C263.693 229.265 256.01 226.694 250.951 220.391C247.532 216.131 244.684 210.208 242.37 203.044C240.597 197.554 239.237 191.662 238.24 185.768C237.891 183.704 237.613 181.789 237.398 180.071L237.319 179.426L237.256 178.881L237.38 178.834C239.065 178.209 241.473 177.613 244.41 177.062C246.419 176.685 248.563 176.349 250.718 176.058L251.306 175.98C251.947 175.895 252.552 175.82 253.112 175.753L254.023 175.648L254.422 175.605L254.405 175.606C265.858 174.906 276.593 175.73 286.163 177.533C288.562 177.985 290.706 178.467 292.574 178.95L292.852 179.023C293.459 179.182 293.995 179.331 294.458 179.467L294.978 179.622L295.199 179.692C295.752 179.872 296.312 179.44 296.414 178.755L296.58 177.617C296.905 175.351 297.323 172.249 297.816 168.465L298.295 164.75L298.605 162.324C298.848 160.412 299.095 158.449 299.343 156.466L300.165 149.849L300.29 148.838Z" fill="#CD5FF8"/>
<path fill-rule="evenodd" clip-rule="evenodd" d="M312.973 154.188C312.973 154.188 319.779 137.053 321.765 122.932C323.654 109.683 317.923 96.3558 307.697 91.3183C299.133 87.0741 296.332 88.4623 296.332 88.4623C296.332 88.4623 301.412 77.4354 288.191 61.2122C283.534 55.5003 277.086 52.3271 270.476 52.5254C254.291 53.0411 249.243 69.7006 249.243 69.7006C249.243 69.7006 231.984 30.8681 196.423 53.7154C192.841 56.016 188.77 62.4418 186.849 66.805C175.06 93.1032 213.65 124.439 233.775 126.978C255.886 129.754 269.759 126.422 276.5 119.282C271.452 123.566 280.506 162.954 312.973 154.188Z" fill="#CD5FF8"/>
<path fill-rule="evenodd" clip-rule="evenodd" d="M253.183 161.726C253.88 161.769 254.421 162.47 254.421 163.311L254.419 163.39L253.471 186.597L258.904 184.451C259.567 184.189 260.277 184.609 260.522 185.394L260.545 185.471C260.76 186.278 260.415 187.143 259.771 187.442L259.708 187.469L252.478 190.325C251.63 190.66 250.769 189.883 250.774 188.811L250.775 188.737L251.817 163.232C251.852 162.384 252.428 161.724 253.118 161.724L253.183 161.726Z" fill="#CD5FF8"/>
<path fill-rule="evenodd" clip-rule="evenodd" d="M265.446 140.936C268.74 140.068 271.634 140.92 274.034 142.861C274.642 143.353 275.172 143.881 275.623 144.413L275.756 144.572C275.967 144.829 276.12 145.04 276.216 145.187C276.664 145.872 276.572 146.87 276.009 147.416C275.447 147.963 274.627 147.85 274.179 147.165C274.131 147.091 274.007 146.924 273.811 146.693C273.47 146.29 273.062 145.884 272.593 145.504C270.745 144.009 268.552 143.365 265.996 144.038C265.293 144.223 264.6 143.679 264.448 142.822C264.296 141.966 264.743 141.121 265.446 140.936Z" fill="#CD5FF8"/>
<path fill-rule="evenodd" clip-rule="evenodd" d="M243.859 134.957C245.121 134.642 246.428 134.726 247.68 135.05L247.883 135.104C248.206 135.195 248.458 135.284 248.623 135.353C249.304 135.637 249.667 136.54 249.433 137.369C249.207 138.172 248.505 138.611 247.843 138.38L247.702 138.326C247.682 138.319 247.659 138.311 247.632 138.301C247.489 138.252 247.323 138.201 247.14 138.154C246.208 137.913 245.242 137.851 244.381 138.065C243.159 138.37 242.294 139.186 241.796 140.758C241.537 141.575 240.783 141.982 240.112 141.666C239.441 141.351 239.107 140.432 239.366 139.615C240.2 136.984 241.804 135.469 243.859 134.957Z" fill="#CD5FF8"/>
<path fill-rule="evenodd" clip-rule="evenodd" d="M276.793 193.695C275.653 191.791 264.549 201.271 268.88 202.144C273.211 202.977 279.235 197.78 276.793 193.695Z" fill="#CD5FF8"/>
<path fill-rule="evenodd" clip-rule="evenodd" d="M230.225 191.95L272.397 174.576C272.397 174.576 278.031 171.958 277.835 163.033C277.64 154.109 268.424 150.777 268.424 150.777L223.452 143.042L230.225 191.95Z" fill="#FEFEFE"/>
<path fill-rule="evenodd" clip-rule="evenodd" d="M185.09 191.95L227.262 174.576C227.262 174.576 232.896 171.958 232.7 163.033C232.505 154.109 223.289 150.777 223.289 150.777L201.536 152.522L178.317 143.042L185.09 191.95Z" fill="#FEFEFE"/>
<path fill-rule="evenodd" clip-rule="evenodd" d="M223.028 193.536C234.521 193.536 243.837 182.188 243.837 168.19C243.837 154.192 234.521 142.844 223.028 142.844C211.536 142.844 202.219 154.192 202.219 168.19C202.219 182.188 211.536 193.536 223.028 193.536Z" fill="#CD5FF8"/>
<path fill-rule="evenodd" clip-rule="evenodd" d="M177.568 193.893C189.06 193.893 198.377 182.545 198.377 168.547C198.377 154.549 189.06 143.201 177.568 143.201C166.075 143.201 156.759 154.549 156.759 168.547C156.759 182.545 166.075 193.893 177.568 193.893Z" fill="#CD5FF8"/>
<path fill-rule="evenodd" clip-rule="evenodd" d="M206.225 125.784L206.637 125.678C211.655 124.415 216.667 123.842 218.708 124.213C221.249 124.664 221.751 127.604 220.067 130.445C218.42 133.226 214.987 135.831 210.256 137.595C209.74 137.788 209.194 137.434 209.036 136.806C208.878 136.178 209.168 135.512 209.684 135.32C214.04 133.695 217.115 131.362 218.483 129.053C219.39 127.521 219.282 126.751 218.473 126.578L218.422 126.568C216.631 126.242 211.706 126.814 206.827 128.061L206.632 128.112C200.353 129.741 194.835 132.222 191.191 135.366C190.75 135.746 190.141 135.619 189.829 135.083C189.517 134.546 189.621 133.804 190.061 133.424C193.962 130.059 199.709 127.474 206.225 125.784Z" fill="#CD5FF8"/>
<path fill-rule="evenodd" clip-rule="evenodd" d="M195.636 133.834C200.351 132.426 206.863 133.85 214.087 137.258L214.34 137.377C219.883 140.021 225.456 143.747 227.286 145.835L227.347 145.907C228.473 147.206 228.607 148.94 227.658 150.309C226.841 151.488 225.315 152.257 223.342 152.511C218.817 153.092 212.547 151.041 205.484 146.103L205.246 145.936L205.03 145.767L204.851 145.631C204.756 145.56 204.654 145.485 204.544 145.406C204.018 145.029 203.438 144.652 202.822 144.3C201.535 143.565 200.275 143.046 199.122 142.833C198.548 142.728 198.014 142.702 197.526 142.759C196.989 142.822 196.512 142.343 196.46 141.689C196.408 141.035 196.801 140.453 197.338 140.39C197.996 140.313 198.689 140.347 199.413 140.48C200.778 140.731 202.208 141.321 203.651 142.145C204.325 142.53 204.959 142.942 205.534 143.354L205.778 143.531C205.953 143.661 206.096 143.77 206.201 143.854L206.249 143.893L206.456 144.038C213.112 148.692 218.929 150.624 222.998 150.161L223.137 150.144C224.655 149.949 225.724 149.41 226.165 148.774C226.413 148.416 226.402 148.118 226.045 147.684L225.997 147.626C224.453 145.81 219.014 142.163 213.627 139.594C206.645 136.264 200.383 134.867 196.102 136.146C195.578 136.302 195.049 135.912 194.92 135.273C194.792 134.635 195.112 133.991 195.636 133.834Z" fill="#CD5FF8"/>
<path fill-rule="evenodd" clip-rule="evenodd" d="M185.793 133.748C190.514 132.491 196.973 133.967 204.098 137.351L204.352 137.473C209.838 140.107 215.322 143.778 217.126 145.836L217.187 145.907C218.313 147.206 218.447 148.94 217.498 150.309C216.68 151.488 215.155 152.257 213.182 152.511C208.657 153.092 202.387 151.041 195.324 146.103L195.086 145.936L194.869 145.767L194.691 145.631C194.596 145.56 194.493 145.485 194.384 145.406C193.858 145.029 193.277 144.652 192.662 144.3C191.375 143.565 190.114 143.046 188.961 142.833C188.388 142.728 187.854 142.702 187.366 142.759C186.829 142.822 186.351 142.343 186.299 141.689C186.248 141.035 186.641 140.453 187.178 140.39C187.835 140.313 188.529 140.347 189.253 140.48C190.617 140.731 192.048 141.321 193.491 142.145C194.165 142.53 194.798 142.942 195.374 143.354L195.618 143.531C195.793 143.661 195.935 143.77 196.041 143.854L196.089 143.893L196.296 144.038C202.951 148.692 208.769 150.624 212.837 150.161L212.977 150.144C214.494 149.949 215.564 149.409 216.005 148.774C216.253 148.416 216.242 148.118 215.885 147.684L215.837 147.627C214.318 145.84 208.967 142.247 203.636 139.687L203.138 139.451C196.442 136.307 190.414 134.954 186.21 136.073C185.683 136.213 185.163 135.807 185.047 135.165C184.932 134.523 185.266 133.888 185.793 133.748Z" fill="#CD5FF8"/>
<path fill-rule="evenodd" clip-rule="evenodd" d="M174.898 135.464C179.454 132.803 186.398 133.825 194.489 137.453L194.879 137.63C200.796 140.338 206.927 144.376 208.818 146.581C209.944 147.88 210.078 149.614 209.129 150.984C208.311 152.162 206.786 152.931 204.813 153.185C200.288 153.767 194.018 151.715 186.955 146.777L186.717 146.61L186.5 146.441L186.322 146.305C186.227 146.234 186.124 146.159 186.014 146.08C185.488 145.703 184.908 145.326 184.293 144.974C183.006 144.24 181.745 143.72 180.592 143.508C180.019 143.402 179.484 143.376 178.997 143.433C178.459 143.496 177.982 143.017 177.93 142.363C177.878 141.709 178.272 141.127 178.809 141.064C179.466 140.987 180.159 141.021 180.884 141.154C182.248 141.405 183.679 141.995 185.122 142.82C185.796 143.205 186.429 143.616 187.005 144.029L187.249 144.206C187.424 144.335 187.566 144.444 187.671 144.528L187.72 144.567L187.927 144.713C194.582 149.366 200.4 151.298 204.468 150.835L204.608 150.818C206.125 150.623 207.195 150.084 207.636 149.448C207.895 149.075 207.871 148.767 207.47 148.304L207.354 148.173C205.523 146.167 199.627 142.319 194.001 139.771L193.814 139.686C186.18 136.264 179.685 135.308 175.743 137.61C175.256 137.894 174.673 137.644 174.44 137.051C174.206 136.459 174.412 135.748 174.898 135.464Z" fill="#CD5FF8"/>
<path fill-rule="evenodd" clip-rule="evenodd" d="M345.651 18.7508C354.755 16.6741 363.651 23.2843 365.648 33.5958L365.706 33.9094L372.154 70.3223C372.268 70.9647 371.932 71.5979 371.405 71.7364C370.896 71.87 370.395 71.495 370.258 70.892L370.244 70.8241L363.797 34.4135C362.153 25.2169 354.194 19.2234 346.011 21.09C337.907 22.9385 332.654 31.7268 334.136 40.813L334.183 41.0885L343.822 95.4301C343.936 96.0725 343.601 96.7058 343.074 96.8446C342.565 96.9784 342.064 96.6036 341.926 96.0007L341.913 95.9327L332.273 41.592C330.398 31.0587 336.414 20.8578 345.651 18.7508Z" fill="#CD5FF8"/>
<path fill-rule="evenodd" clip-rule="evenodd" d="M381.881 19.0102C382.159 8.29558 390.051 -0.12877 399.429 0.207188C408.748 0.539817 416.105 9.26334 415.982 19.8265L414.934 73.2196C414.921 73.8766 414.473 74.3965 413.934 74.3808C413.413 74.3656 412.998 73.858 412.981 73.2326L412.98 73.1627L414.023 20.0811C414.265 10.7229 407.736 2.88465 399.372 2.58609C391.124 2.29064 384.216 9.57358 383.843 18.8054L383.834 19.0857L382.531 68.7866C382.514 69.4434 382.063 69.9589 381.524 69.938C381.004 69.9177 380.591 69.4061 380.578 68.7806L380.578 68.7106L381.881 19.0102Z" fill="#CD5FF8"/>
<path fill-rule="evenodd" clip-rule="evenodd" d="M429.871 33.8278C431.746 23.3394 440.729 16.5738 449.926 18.6715C459.062 20.7554 465.06 30.8055 463.357 41.1967L463.303 41.5117L454.153 93.1165C454.039 93.7588 453.519 94.1671 452.991 94.0284C452.483 93.8946 452.153 93.301 452.232 92.6828L452.243 92.614L461.394 41.0073C463.03 31.8541 457.742 22.8757 449.566 21.0107C441.464 19.1627 433.583 25.0185 431.825 34.0914L431.774 34.3673L424.121 71.9702C423.991 72.6081 423.461 72.997 422.938 72.8389C422.433 72.6864 422.118 72.0809 422.212 71.4659L422.224 71.3975L429.871 33.8278Z" fill="#CD5FF8"/>
<path fill-rule="evenodd" clip-rule="evenodd" d="M470.476 70.8032C474.697 61.2366 484.896 57.3723 493.305 62.1157C501.67 66.8342 505.126 78.3045 501.077 87.8636L500.952 88.1527L460.832 179.145C460.577 179.724 459.984 179.942 459.509 179.631C459.051 179.331 458.869 178.651 459.084 178.084L459.11 178.019L499.231 87.0264C502.931 78.6398 499.931 68.4761 492.484 64.2752C485.073 60.0946 476.101 63.4239 472.31 71.6778L472.197 71.9294L462.004 95.0544C461.749 95.6334 461.157 95.8508 460.681 95.5399C460.224 95.2406 460.041 94.5605 460.256 93.9935L460.283 93.9286L470.476 70.8032Z" fill="#CD5FF8"/>
<path fill-rule="evenodd" clip-rule="evenodd" d="M326.286 157.463C326.744 157.164 327.31 157.354 327.579 157.886L327.609 157.949L336.401 177.901C336.656 178.48 336.478 179.201 336.003 179.512C335.545 179.811 334.979 179.621 334.709 179.089L334.68 179.026L325.887 159.074C325.632 158.495 325.81 157.774 326.286 157.463Z" fill="#CD5FF8"/>
<path fill-rule="evenodd" clip-rule="evenodd" d="M302.272 62.1156C310.596 57.4197 320.676 61.1602 324.973 70.5182L325.101 70.8035L337.15 98.133C337.405 98.712 337.227 99.4335 336.752 99.7444C336.294 100.044 335.728 99.8534 335.458 99.3218L335.429 99.259L323.38 71.9299C319.657 63.4919 310.579 60.0524 303.093 64.2752C295.72 68.4341 292.706 78.4371 296.237 86.7743L296.346 87.0264L322.333 145.93C322.588 146.509 322.41 147.23 321.935 147.541C321.477 147.841 320.911 147.65 320.641 147.119L320.612 147.056L294.625 88.153C290.382 78.5369 293.822 66.8819 302.272 62.1156Z" fill="#CD5FF8"/>
<path fill-rule="evenodd" clip-rule="evenodd" d="M376.319 67.0127C385.058 65.6664 393.054 74.5709 394.342 86.844L394.379 87.2169L397.975 125.635L404.861 87.0228C406.974 75.0251 415.588 67.9228 424.164 71.1666L424.424 71.268C432.922 74.6906 438.061 86.9987 436.076 98.9049L436.014 99.2656L429.735 134.527L441.334 103.519C445.404 92.6033 455.031 88.6366 462.872 94.6186L463.109 94.803C470.809 100.903 473.793 114.459 469.903 125.317L469.783 125.646L449.789 179.194C449.565 179.792 448.986 180.057 448.495 179.785C448.021 179.522 447.802 178.857 447.988 178.273L448.01 178.209L468.005 124.661C471.683 114.796 468.992 102.303 462.044 96.798C455.26 91.423 446.912 94.7013 443.223 104.214L443.112 104.505L427.742 145.598C427.265 146.873 425.704 146.267 425.887 144.923L425.898 144.852L434.105 98.7599C436.051 87.8814 431.4 76.5841 423.811 73.5277C416.391 70.5395 408.826 76.5957 406.829 87.2022L406.77 87.525L398.629 133.18C398.399 134.47 396.888 134.403 396.712 133.137L396.704 133.062L392.438 87.4862C391.39 76.2603 384.235 68.1921 376.565 69.3739C368.969 70.544 363.544 80.3695 364.455 91.4415L364.484 91.7774L368.913 138.702C369.042 140.064 367.501 140.552 367.055 139.334L367.032 139.267L357.327 108.765C354.039 98.432 345.689 93.673 338.686 98.0114C331.666 102.361 328.517 114.168 331.665 124.49L331.762 124.802L348.761 178.192C348.956 178.804 348.706 179.494 348.203 179.731C347.718 179.961 347.175 179.686 346.961 179.117L346.939 179.052L329.94 125.662C326.285 114.179 329.77 100.865 337.8 95.8901C345.816 90.9242 355.273 96.2189 359.037 107.559L359.149 107.905L366.102 129.76L362.543 92.0482C361.391 79.7442 367.39 68.5948 376.056 67.0564L376.319 67.0127Z" fill="#FEFEFE"/>
<path fill-rule="evenodd" clip-rule="evenodd" d="M466.191 177.472C469.3 177.472 471.832 180.512 471.889 184.283L471.89 184.413V205.476C471.89 209.262 469.394 212.346 466.298 212.416L466.191 212.417H459.051L445.747 281.192C445.627 281.809 445.134 282.2 444.628 282.092L444.572 282.077C444.065 281.932 443.745 281.331 443.833 280.715L443.845 280.646L457.327 210.954C457.426 210.44 457.791 210.07 458.219 210.039L458.278 210.037H466.191C468.225 210.037 469.884 208.054 469.935 205.591L469.936 205.476V184.413C469.936 181.936 468.308 179.915 466.286 179.853L466.191 179.852H328.441C326.407 179.852 324.748 181.835 324.697 184.297L324.696 184.413V205.476C324.696 207.953 326.324 209.974 328.346 210.036L328.441 210.037H336.908C337.342 210.037 337.721 210.384 337.844 210.885L337.859 210.954L361.273 332.013C361.397 332.653 361.072 333.294 360.546 333.444C360.04 333.59 359.533 333.226 359.386 332.626L359.371 332.559L336.134 212.417H328.441C325.332 212.417 322.8 209.376 322.743 205.606L322.742 205.476V184.413C322.742 180.626 325.239 177.543 328.334 177.473L328.441 177.472H466.191Z" fill="#CD5FF8"/>
<path fill-rule="evenodd" clip-rule="evenodd" d="M420.086 262.055C422.281 260.912 423.886 261.228 425.454 262.924C425.815 263.315 426.171 263.766 426.628 264.399L426.913 264.8C427.18 265.181 428.016 266.375 428.322 266.797C429.699 268.696 431.006 270.205 432.659 271.676C432.888 271.88 433.123 272.082 433.36 272.279L433.674 272.536C435.464 273.992 436.934 274.983 440.189 277.021L441.413 277.788C442.983 278.777 443.925 279.397 444.993 280.159C449.048 283.051 452.271 286.328 455.458 291.162C455.795 291.674 455.728 292.423 455.307 292.834C454.887 293.246 454.272 293.164 453.934 292.652C450.968 288.151 447.99 285.094 444.246 282.385L443.801 282.067C442.813 281.369 441.887 280.764 440.352 279.799L438.733 278.785C435.616 276.824 434.177 275.829 432.262 274.247C432.005 274.034 431.753 273.817 431.506 273.597C429.805 272.083 428.444 270.532 427.048 268.634L426.715 268.174C426.253 267.527 425.348 266.233 425.352 266.237L425.169 265.982C424.758 265.412 424.449 265.02 424.156 264.703C423.154 263.62 422.354 263.462 420.858 264.241C419.729 264.836 419.486 266.233 420.154 268.759C420.794 271.176 422.225 274.272 424.3 277.899C424.608 278.438 424.5 279.179 424.057 279.555C423.614 279.931 423.005 279.799 422.697 279.259C420.52 275.455 419.007 272.182 418.294 269.489C417.356 265.939 417.824 263.246 420.086 262.055Z" fill="#CD5FF8"/>
<path fill-rule="evenodd" clip-rule="evenodd" d="M388.025 269.655L388.379 269.638C391.875 269.491 397.444 269.824 402.934 270.751C411.09 272.13 418.423 274.635 424.226 278.486C424.7 278.8 424.875 279.523 424.617 280.1C424.359 280.677 423.765 280.89 423.292 280.576C417.817 276.943 410.837 274.53 403.049 273.175L402.665 273.109C397.104 272.169 391.459 271.853 388.115 272.033C386.17 272.147 385.688 273.901 387.27 276.622C387.581 277.159 387.477 277.901 387.037 278.281C386.596 278.661 385.986 278.534 385.675 277.997C383.276 273.87 384.376 269.87 388.025 269.655Z" fill="#CD5FF8"/>
<path fill-rule="evenodd" clip-rule="evenodd" d="M381.643 276.203C384.389 275.947 390.515 276.794 396.838 278.421C404.744 280.455 412.241 283.448 418.188 287.243C418.666 287.548 418.85 288.267 418.6 288.849C418.349 289.431 417.759 289.656 417.281 289.351C411.513 285.67 404.178 282.742 396.435 280.75L395.783 280.585C389.86 279.109 384.225 278.349 381.791 278.576C378.787 278.852 379.384 283.858 384.608 288.955C385.029 289.366 385.097 290.115 384.76 290.628C384.422 291.141 383.807 291.223 383.386 290.812C380.299 287.8 378.446 284.525 378.105 281.666C377.745 278.648 379.154 276.432 381.643 276.203Z" fill="#CD5FF8"/>
<path fill-rule="evenodd" clip-rule="evenodd" d="M385.122 288.497C390.531 288.173 404.806 292.205 415.072 297.802C415.565 298.07 415.786 298.774 415.565 299.374C415.345 299.974 414.767 300.242 414.274 299.974C409.08 297.143 403.132 294.782 397.272 293.09L396.77 292.947C391.753 291.53 387.239 290.753 385.222 290.874C383.726 290.971 382.98 292.341 383.296 294.662C383.697 297.607 385.717 301.167 389.155 304.413C389.581 304.815 389.659 305.563 389.328 306.082C388.998 306.602 388.384 306.696 387.958 306.294C384.16 302.709 381.859 298.652 381.368 295.051C380.874 291.421 382.369 288.676 385.122 288.497Z" fill="#CD5FF8"/>
<path fill-rule="evenodd" clip-rule="evenodd" d="M390.88 300.999C394.575 300.448 405.014 303.642 414.493 308.419C414.992 308.67 415.229 309.366 415.022 309.973C414.816 310.58 414.245 310.869 413.746 310.618L413.194 310.342C404.155 305.865 394.317 302.884 391.114 303.362C390.021 303.52 389.584 304.049 389.627 304.954C389.689 306.265 390.66 308.187 392.529 310.339C397.356 315.899 406.79 321.717 420.132 326.585C420.648 326.773 420.942 327.436 420.787 328.066C420.632 328.696 420.088 329.053 419.571 328.864C405.962 323.899 396.268 317.921 391.186 312.069C388.99 309.539 387.772 307.129 387.676 305.091C387.569 302.826 388.833 301.296 390.88 300.999Z" fill="#CD5FF8"/>
<path fill-rule="evenodd" clip-rule="evenodd" d="M424.153 278.063L424.211 278.066C436.892 279.03 447.551 283.481 455.147 290.456C462.08 296.823 465.995 304.96 465.976 312.67C465.955 320.613 461.784 327.154 454.271 330.457C446.013 334.087 434.2 333.725 419.594 328.873C419.074 328.7 418.767 328.045 418.909 327.411C419.051 326.777 419.588 326.404 420.108 326.577C434.358 331.311 445.777 331.661 453.608 328.219C460.38 325.241 464.004 319.559 464.022 312.663C464.039 305.771 460.446 298.303 453.971 292.357C446.694 285.675 436.403 281.378 424.089 280.441C423.55 280.4 423.141 279.835 423.175 279.179C423.207 278.547 423.64 278.06 424.153 278.063Z" fill="#CD5FF8"/>
<path fill-rule="evenodd" clip-rule="evenodd" d="M551.87 331.334C552.409 331.334 552.847 331.867 552.847 332.524C552.847 333.158 552.44 333.676 551.927 333.712L551.87 333.714H1.00002C0.460467 333.714 0.0230713 333.181 0.0230713 332.524C0.0230713 331.89 0.429782 331.372 0.942618 331.336L1.00002 331.334H551.87Z" fill="#CD5FF8"/>
</svg>
